<svg xmlns="http://www.w3.org/2000/svg" xmlns:xlink="http://www.w3.org/1999/xlink" xmlns:lucid="lucid" width="1605" height="2200"><g transform="translate(-3645 1700)" lucid:page-tab-id="0_0"><path d="M-500-2000h6000V500H-500z" fill="#fff"/><g filter="url(#a)"><path d="M3780-695a5 5 0 0 1 5-5h270a5 5 0 0 1 5 5v318a5 5 0 0 1-5 5h-270a5 5 0 0 1-5-5z" fill="#fff"/><path d="M3780-660v-35a5 5 0 0 1 5-5h270a5 5 0 0 1 5 5v35" fill="#dedeff"/><path d="M3780-695a5 5 0 0 1 5-5h270a5 5 0 0 1 5 5v318a5 5 0 0 1-5 5h-270a5 5 0 0 1-5-5zM3780-660h280M3920-660v288" stroke="#282c33" stroke-width="4" fill="none"/><use xlink:href="#b" transform="matrix(1,0,0,1,3790,-700) translate(0 23.6)"/><use xlink:href="#c" transform="matrix(1,0,0,1,3785,-657.5) translate(0 17.1)"/><use xlink:href="#d" transform="matrix(1,0,0,1,3925,-657.5) translate(0 17.1)"/><use xlink:href="#e" transform="matrix(1,0,0,1,3785,-625.5) translate(0 17.1)"/><use xlink:href="#d" transform="matrix(1,0,0,1,3925,-625.5) translate(0 17.1)"/><use xlink:href="#f" transform="matrix(1,0,0,1,3785,-593.5) translate(0 17.1)"/><use xlink:href="#d" transform="matrix(1,0,0,1,3925,-593.5) translate(0 17.1)"/><use xlink:href="#g" transform="matrix(1,0,0,1,3785,-561.5) translate(0 17.1)"/><use xlink:href="#d" transform="matrix(1,0,0,1,3925,-561.5) translate(0 17.1)"/><use xlink:href="#h" transform="matrix(1,0,0,1,3785,-529.5) translate(0 17.1)"/><use xlink:href="#d" transform="matrix(1,0,0,1,3925,-529.5) translate(0 17.1)"/><use xlink:href="#i" transform="matrix(1,0,0,1,3785,-497.5) translate(0 17.1)"/><use xlink:href="#d" transform="matrix(1,0,0,1,3925,-497.5) translate(0 17.1)"/><use xlink:href="#j" transform="matrix(1,0,0,1,3785,-465.5) translate(0 17.1)"/><use xlink:href="#d" transform="matrix(1,0,0,1,3925,-465.5) translate(0 17.1)"/><use xlink:href="#k" transform="matrix(1,0,0,1,3785,-433.5) translate(0 17.1)"/><use xlink:href="#d" transform="matrix(1,0,0,1,3925,-433.5) translate(0 17.1)"/><use xlink:href="#l" transform="matrix(1,0,0,1,3785,-401.5) translate(0 17.1)"/><use xlink:href="#m" transform="matrix(1,0,0,1,3925,-401.5) translate(0 17.1)"/></g><g filter="url(#n)"><path d="M4400-1613a5 5 0 0 1 5-5h270a5 5 0 0 1 5 5v446a5 5 0 0 1-5 5h-270a5 5 0 0 1-5-5z" fill="#fff"/><path d="M4400-1578v-35a5 5 0 0 1 5-5h270a5 5 0 0 1 5 5v35" fill="#b8f5ed"/><path d="M4400-1613a5 5 0 0 1 5-5h270a5 5 0 0 1 5 5v446a5 5 0 0 1-5 5h-270a5 5 0 0 1-5-5zM4400-1578h280M4538.28-1578v416" stroke="#282c33" stroke-width="4" fill="none"/><use xlink:href="#o" transform="matrix(1,0,0,1,4410,-1618) translate(0 23.6)"/><use xlink:href="#c" transform="matrix(1,0,0,1,4405,-1575.5) translate(0 17.1)"/><use xlink:href="#d" transform="matrix(1,0,0,1,4543.279834575861,-1575.5) translate(0 17.1)"/><use xlink:href="#e" transform="matrix(1,0,0,1,4405,-1543.5) translate(0 17.1)"/><use xlink:href="#d" transform="matrix(1,0,0,1,4543.279834575861,-1543.5) translate(0 17.1)"/><use xlink:href="#g" transform="matrix(1,0,0,1,4405,-1511.5) translate(0 17.1)"/><use xlink:href="#d" transform="matrix(1,0,0,1,4543.279834575861,-1511.5) translate(0 17.1)"/><use xlink:href="#f" transform="matrix(1,0,0,1,4405,-1479.5) translate(0 17.1)"/><use xlink:href="#d" transform="matrix(1,0,0,1,4543.279834575861,-1479.5) translate(0 17.1)"/><use xlink:href="#p" transform="matrix(1,0,0,1,4405,-1447.5) translate(0 17.1)"/><use xlink:href="#d" transform="matrix(1,0,0,1,4543.279834575861,-1447.5) translate(0 17.1)"/><use xlink:href="#h" transform="matrix(1,0,0,1,4405,-1415.5) translate(0 17.1)"/><use xlink:href="#d" transform="matrix(1,0,0,1,4543.279834575861,-1415.5) translate(0 17.1)"/><use xlink:href="#q" transform="matrix(1,0,0,1,4405,-1383.5) translate(0 17.1)"/><use xlink:href="#r" transform="matrix(1,0,0,1,4543.279834575861,-1383.5) translate(0 17.1)"/><use xlink:href="#s" transform="matrix(1,0,0,1,4405,-1351.5) translate(0 17.1)"/><use xlink:href="#m" transform="matrix(1,0,0,1,4543.279834575861,-1351.5) translate(0 17.1)"/><use xlink:href="#t" transform="matrix(1,0,0,1,4405,-1319.5) translate(0 17.1)"/><use xlink:href="#m" transform="matrix(1,0,0,1,4543.279834575861,-1319.5) translate(0 17.1)"/><use xlink:href="#u" transform="matrix(1,0,0,1,4405,-1287.5) translate(0 17.1)"/><use xlink:href="#m" transform="matrix(1,0,0,1,4543.279834575861,-1287.5) translate(0 17.1)"/><use xlink:href="#v" transform="matrix(1,0,0,1,4405,-1255.5) translate(0 17.1)"/><use xlink:href="#m" transform="matrix(1,0,0,1,4543.279834575861,-1255.5) translate(0 17.1)"/><use xlink:href="#k" transform="matrix(1,0,0,1,4405,-1223.5) translate(0 17.1)"/><use xlink:href="#d" transform="matrix(1,0,0,1,4543.279834575861,-1223.5) translate(0 17.1)"/><use xlink:href="#w" transform="matrix(1,0,0,1,4405,-1191.5) translate(0 17.1)"/><use xlink:href="#d" transform="matrix(1,0,0,1,4543.279834575861,-1191.5) translate(0 17.1)"/></g><g filter="url(#x)"><path d="M4060-908.07a8 8 0 0 1 8-8h184a8 8 0 0 1 8 8v184a8 8 0 0 1-8 8h-184a8 8 0 0 1-8-8z" fill="#fff"/><path d="M4060-908.07a8 8 0 0 1 8-8h184a8 8 0 0 1 8 8v184a8 8 0 0 1-8 8h-184a8 8 0 0 1-8-8zM4060-876.07h200M4163.47-876.07v160" stroke="#3a414a" stroke-width="4" fill="none"/><use xlink:href="#y" transform="matrix(1,0,0,1,4070,-916.0677159574907) translate(53.55 23.6)"/><use xlink:href="#z" transform="matrix(1,0,0,1,4065,-873.5677159574907) translate(40.025 17.1)"/><use xlink:href="#A" transform="matrix(1,0,0,1,4168.466486328069,-873.5677159574907) translate(21.55 17.1)"/><use xlink:href="#B" transform="matrix(1,0,0,1,4065,-841.5677159574907) translate(24.525 17.1)"/><use xlink:href="#A" transform="matrix(1,0,0,1,4168.466486328069,-841.5677159574907) translate(21.55 17.1)"/><use xlink:href="#C" transform="matrix(1,0,0,1,4065,-809.5677159574907) translate(3.5749999999999957 17.1)"/><use xlink:href="#A" transform="matrix(1,0,0,1,4168.466486328069,-809.5677159574907) translate(21.55 17.1)"/><use xlink:href="#D" transform="matrix(1,0,0,1,4065,-777.5677159574907) translate(4.524999999999999 17.1)"/><use xlink:href="#E" transform="matrix(1,0,0,1,4168.466486328069,-777.5677159574907) translate(24.525 17.1)"/><use xlink:href="#F" transform="matrix(1,0,0,1,4065,-745.5677159574907) translate(2 17.1)"/><use xlink:href="#E" transform="matrix(1,0,0,1,4168.466486328069,-745.5677159574907) translate(24.525 17.1)"/></g><g filter="url(#G)"><path d="M4900 168a8 8 0 0 1 8-8h164a8 8 0 0 1 8 8v184a8 8 0 0 1-8 8h-164a8 8 0 0 1-8-8z" fill="#fff"/><path d="M4900 168a8 8 0 0 1 8-8h164a8 8 0 0 1 8 8v184a8 8 0 0 1-8 8h-164a8 8 0 0 1-8-8zM4900 200h180M5000 200v160" stroke="#3a414a" stroke-width="4" fill="none"/><use xlink:href="#H" transform="matrix(1,0,0,1,4910,160) translate(19.099999999999994 23.6)"/><use xlink:href="#z" transform="matrix(1,0,0,1,4905,202.5) translate(38.525 17.1)"/><use xlink:href="#A" transform="matrix(1,0,0,1,5005.009443861491,202.5) translate(13.05 17.1)"/><use xlink:href="#B" transform="matrix(1,0,0,1,4905,234.5) translate(23.025 17.1)"/><use xlink:href="#A" transform="matrix(1,0,0,1,5005.009443861491,234.5) translate(13.05 17.1)"/><use xlink:href="#C" transform="matrix(1,0,0,1,4905,266.5) translate(2.0749999999999957 17.1)"/><use xlink:href="#A" transform="matrix(1,0,0,1,5005.009443861491,266.5) translate(13.05 17.1)"/><use xlink:href="#D" transform="matrix(1,0,0,1,4905,298.5) translate(3.0249999999999986 17.1)"/><use xlink:href="#E" transform="matrix(1,0,0,1,5005.009443861491,298.5) translate(16.025 17.1)"/><use xlink:href="#F" transform="matrix(1,0,0,1,4905,330.5) translate(0.5 17.1)"/><use xlink:href="#E" transform="matrix(1,0,0,1,5005.009443861491,330.5) translate(16.025 17.1)"/></g><g filter="url(#I)"><path d="M4520-972a8 8 0 0 1 8-8h184a8 8 0 0 1 8 8v376a8 8 0 0 1-8 8h-184a8 8 0 0 1-8-8z" fill="#fff"/><path d="M4520-972a8 8 0 0 1 8-8h184a8 8 0 0 1 8 8v376a8 8 0 0 1-8 8h-184a8 8 0 0 1-8-8zM4520-940h200M4623.6-940v352" stroke="#3a414a" stroke-width="4" fill="none"/><use xlink:href="#J" transform="matrix(1,0,0,1,4530,-980) translate(59.025 23.6)"/><use xlink:href="#z" transform="matrix(1,0,0,1,4525,-937.5) translate(40.025 17.1)"/><use xlink:href="#A" transform="matrix(1,0,0,1,4628.614231906952,-937.5) translate(21.55 17.1)"/><use xlink:href="#B" transform="matrix(1,0,0,1,4525,-905.5) translate(24.525 17.1)"/><use xlink:href="#A" transform="matrix(1,0,0,1,4628.614231906952,-905.5) translate(21.55 17.1)"/><use xlink:href="#K" transform="matrix(1,0,0,1,4525,-873.5) translate(27.55 17.1)"/><use xlink:href="#L" transform="matrix(1,0,0,1,4628.614231906952,-873.5) translate(26.525 17.1)"/><use xlink:href="#M" transform="matrix(1,0,0,1,4525,-841.5) translate(10.574999999999996 17.1)"/><use xlink:href="#L" transform="matrix(1,0,0,1,4628.614231906952,-841.5) translate(26.525 17.1)"/><use xlink:href="#C" transform="matrix(1,0,0,1,4525,-809.5) translate(3.5749999999999957 17.1)"/><use xlink:href="#A" transform="matrix(1,0,0,1,4628.614231906952,-809.5) translate(21.55 17.1)"/><use xlink:href="#N" transform="matrix(1,0,0,1,4525,-777.5) translate(23 17.1)"/><use xlink:href="#O" transform="matrix(1,0,0,1,4628.614231906952,-777.5) translate(11.524999999999999 17.1)"/><use xlink:href="#P" transform="matrix(1,0,0,1,4525,-745.5) translate(22.549999999999997 17.1)"/><use xlink:href="#A" transform="matrix(1,0,0,1,4628.614231906952,-745.5) translate(21.55 17.1)"/><use xlink:href="#D" transform="matrix(1,0,0,1,4525,-713.5) translate(4.524999999999999 17.1)"/><use xlink:href="#E" transform="matrix(1,0,0,1,4628.614231906952,-713.5) translate(24.525 17.1)"/><use xlink:href="#F" transform="matrix(1,0,0,1,4525,-681.5) translate(2 17.1)"/><use xlink:href="#E" transform="matrix(1,0,0,1,4628.614231906952,-681.5) translate(24.525 17.1)"/><use xlink:href="#Q" transform="matrix(1,0,0,1,4525,-649.5) translate(5.024999999999999 17.1)"/><use xlink:href="#E" transform="matrix(1,0,0,1,4628.614231906952,-649.5) translate(24.525 17.1)"/><use xlink:href="#R" transform="matrix(1,0,0,1,4525,-617.5) translate(5.524999999999999 17.1)"/><use xlink:href="#E" transform="matrix(1,0,0,1,4628.614231906952,-617.5) translate(24.525 17.1)"/></g><g filter="url(#S)"><path d="M3920-1552a8 8 0 0 1 8-8h195a8 8 0 0 1 8 8v472a8 8 0 0 1-8 8h-195a8 8 0 0 1-8-8z" fill="#fff"/><path d="M3920-1552a8 8 0 0 1 8-8h195a8 8 0 0 1 8 8v472a8 8 0 0 1-8 8h-195a8 8 0 0 1-8-8zM3920-1520h211M4028.26-1520v448" stroke="#3a414a" stroke-width="4" fill="none"/><use xlink:href="#T" transform="matrix(1,0,0,1,3930,-1560) translate(55.55 23.6)"/><use xlink:href="#z" transform="matrix(1,0,0,1,3925,-1517.5) translate(42.525 17.1)"/><use xlink:href="#A" transform="matrix(1,0,0,1,4033.258525799551,-1517.5) translate(24.55 17.1)"/><use xlink:href="#U" transform="matrix(1,0,0,1,3925,-1485.5) translate(9.549999999999997 17.1)"/><use xlink:href="#A" transform="matrix(1,0,0,1,4033.258525799551,-1485.5) translate(24.55 17.1)"/><use xlink:href="#V" transform="matrix(1,0,0,1,3925,-1453.5) translate(28.074999999999996 17.1)"/><use xlink:href="#A" transform="matrix(1,0,0,1,4033.258525799551,-1453.5) translate(24.55 17.1)"/><use xlink:href="#W" transform="matrix(1,0,0,1,3925,-1421.5) translate(11.049999999999997 17.1)"/><use xlink:href="#A" transform="matrix(1,0,0,1,4033.258525799551,-1421.5) translate(24.55 17.1)"/><use xlink:href="#X" transform="matrix(1,0,0,1,3925,-1389.5) translate(17.525 17.1)"/><use xlink:href="#A" transform="matrix(1,0,0,1,4033.258525799551,-1389.5) translate(24.55 17.1)"/><use xlink:href="#Y" transform="matrix(1,0,0,1,3925,-1357.5) translate(24.5 17.1)"/><use xlink:href="#A" transform="matrix(1,0,0,1,4033.258525799551,-1357.5) translate(24.55 17.1)"/><use xlink:href="#Z" transform="matrix(1,0,0,1,3925,-1325.5) translate(14.549999999999997 17.1)"/><use xlink:href="#E" transform="matrix(1,0,0,1,4033.258525799551,-1325.5) translate(27.525 17.1)"/><use xlink:href="#aa" transform="matrix(1,0,0,1,3925,-1293.5) translate(21.525 17.1)"/><use xlink:href="#A" transform="matrix(1,0,0,1,4033.258525799551,-1293.5) translate(24.55 17.1)"/><use xlink:href="#N" transform="matrix(1,0,0,1,3925,-1261.5) translate(25.5 17.1)"/><use xlink:href="#O" transform="matrix(1,0,0,1,4033.258525799551,-1261.5) translate(14.524999999999999 17.1)"/><use xlink:href="#ab" transform="matrix(1,0,0,1,3925,-1229.5) translate(24.525 17.1)"/><use xlink:href="#A" transform="matrix(1,0,0,1,4033.258525799551,-1229.5) translate(24.55 17.1)"/><use xlink:href="#D" transform="matrix(1,0,0,1,3925,-1197.5) translate(7.024999999999999 17.1)"/><use xlink:href="#E" transform="matrix(1,0,0,1,4033.258525799551,-1197.5) translate(27.525 17.1)"/><use xlink:href="#ac" transform="matrix(1,0,0,1,3925,-1165.5) translate(9.5 17.1)"/><use xlink:href="#E" transform="matrix(1,0,0,1,4033.258525799551,-1165.5) translate(27.525 17.1)"/><use xlink:href="#Q" transform="matrix(1,0,0,1,3925,-1133.5) translate(7.524999999999999 17.1)"/><use xlink:href="#E" transform="matrix(1,0,0,1,4033.258525799551,-1133.5) translate(27.525 17.1)"/><use xlink:href="#Q" transform="matrix(1,0,0,1,3925,-1101.5) translate(7.524999999999999 17.1)"/><use xlink:href="#E" transform="matrix(1,0,0,1,4033.258525799551,-1101.5) translate(27.525 17.1)"/></g><g filter="url(#ad)"><path d="M4867-511a9 9 0 0 1 9-9h195a9 9 0 0 1 9 9v226a9 9 0 0 1-9 9h-195a9 9 0 0 1-9-9z" fill="#fff"/><path d="M4867-511a9 9 0 0 1 9-9h195a9 9 0 0 1 9 9v226a9 9 0 0 1-9 9h-195a9 9 0 0 1-9-9zM4867-480h213M4986.82-480v204" stroke="#3a414a" stroke-width="4" fill="none"/><use xlink:href="#ae" transform="matrix(1,0,0,1,4877,-520) translate(46.618518518518556 24.044444444444444)"/><use xlink:href="#af" transform="matrix(1,0,0,1,4872,-477.5) translate(47.16388888888889 18.544444444444444)"/><use xlink:href="#ag" transform="matrix(1,0,0,1,4991.818813604419,-477.5) translate(17.34012345679014 18.544444444444444)"/><use xlink:href="#ah" transform="matrix(1,0,0,1,4872,-443.5) translate(29.750308641975323 18.544444444444444)"/><use xlink:href="#ag" transform="matrix(1,0,0,1,4991.818813604419,-443.5) translate(17.34012345679014 18.544444444444444)"/><use xlink:href="#ai" transform="matrix(1,0,0,1,4872,-409.5) translate(6.213888888888924 18.544444444444444)"/><use xlink:href="#ag" transform="matrix(1,0,0,1,4991.818813604419,-409.5) translate(17.34012345679014 18.544444444444444)"/><use xlink:href="#aj" transform="matrix(1,0,0,1,4872,-375.5) translate(7.281172839506212 18.544444444444444)"/><use xlink:href="#ak" transform="matrix(1,0,0,1,4991.818813604419,-375.5) translate(20.68240740740742 18.544444444444444)"/><use xlink:href="#al" transform="matrix(1,0,0,1,4872,-341.5) translate(4.4444444444444855 18.544444444444444)"/><use xlink:href="#ak" transform="matrix(1,0,0,1,4991.818813604419,-341.5) translate(20.68240740740742 18.544444444444444)"/><use xlink:href="#am" transform="matrix(1,0,0,1,4872,-307.5) translate(7.84290123456794 18.544444444444444)"/><use xlink:href="#ak" transform="matrix(1,0,0,1,4991.818813604419,-307.5) translate(20.68240740740742 18.544444444444444)"/></g><g filter="url(#an)"><path d="M4880-1352a8 8 0 0 1 8-8h184a8 8 0 0 1 8 8v472a8 8 0 0 1-8 8h-184a8 8 0 0 1-8-8z" fill="#fff"/><path d="M4880-1352a8 8 0 0 1 8-8h184a8 8 0 0 1 8 8v472a8 8 0 0 1-8 8h-184a8 8 0 0 1-8-8zM4880-1320h200M4988.26-1320v448" stroke="#3a414a" stroke-width="4" fill="none"/><use xlink:href="#ao" transform="matrix(1,0,0,1,4890,-1360) translate(71.05 23.6)"/><use xlink:href="#z" transform="matrix(1,0,0,1,4885,-1317.5) translate(42.525 17.1)"/><use xlink:href="#A" transform="matrix(1,0,0,1,4993.258525799551,-1317.5) translate(19.05 17.1)"/><use xlink:href="#U" transform="matrix(1,0,0,1,4885,-1285.5) translate(9.549999999999997 17.1)"/><use xlink:href="#A" transform="matrix(1,0,0,1,4993.258525799551,-1285.5) translate(19.05 17.1)"/><use xlink:href="#V" transform="matrix(1,0,0,1,4885,-1253.5) translate(28.074999999999996 17.1)"/><use xlink:href="#A" transform="matrix(1,0,0,1,4993.258525799551,-1253.5) translate(19.05 17.1)"/><use xlink:href="#W" transform="matrix(1,0,0,1,4885,-1221.5) translate(11.049999999999997 17.1)"/><use xlink:href="#A" transform="matrix(1,0,0,1,4993.258525799551,-1221.5) translate(19.05 17.1)"/><use xlink:href="#X" transform="matrix(1,0,0,1,4885,-1189.5) translate(17.525 17.1)"/><use xlink:href="#A" transform="matrix(1,0,0,1,4993.258525799551,-1189.5) translate(19.05 17.1)"/><use xlink:href="#Y" transform="matrix(1,0,0,1,4885,-1157.5) translate(24.5 17.1)"/><use xlink:href="#A" transform="matrix(1,0,0,1,4993.258525799551,-1157.5) translate(19.05 17.1)"/><use xlink:href="#Z" transform="matrix(1,0,0,1,4885,-1125.5) translate(14.549999999999997 17.1)"/><use xlink:href="#E" transform="matrix(1,0,0,1,4993.258525799551,-1125.5) translate(22.025 17.1)"/><use xlink:href="#aa" transform="matrix(1,0,0,1,4885,-1093.5) translate(21.525 17.1)"/><use xlink:href="#A" transform="matrix(1,0,0,1,4993.258525799551,-1093.5) translate(19.05 17.1)"/><use xlink:href="#N" transform="matrix(1,0,0,1,4885,-1061.5) translate(25.5 17.1)"/><use xlink:href="#O" transform="matrix(1,0,0,1,4993.258525799551,-1061.5) translate(9.024999999999999 17.1)"/><use xlink:href="#ab" transform="matrix(1,0,0,1,4885,-1029.5) translate(24.525 17.1)"/><use xlink:href="#A" transform="matrix(1,0,0,1,4993.258525799551,-1029.5) translate(19.05 17.1)"/><use xlink:href="#D" transform="matrix(1,0,0,1,4885,-997.5) translate(7.024999999999999 17.1)"/><use xlink:href="#E" transform="matrix(1,0,0,1,4993.258525799551,-997.5) translate(22.025 17.1)"/><use xlink:href="#ac" transform="matrix(1,0,0,1,4885,-965.5) translate(9.5 17.1)"/><use xlink:href="#E" transform="matrix(1,0,0,1,4993.258525799551,-965.5) translate(22.025 17.1)"/><use xlink:href="#Q" transform="matrix(1,0,0,1,4885,-933.5) translate(7.524999999999999 17.1)"/><use xlink:href="#E" transform="matrix(1,0,0,1,4993.258525799551,-933.5) translate(22.025 17.1)"/><use xlink:href="#ap" transform="matrix(1,0,0,1,4885,-901.5) translate(20.025 17.1)"/><use xlink:href="#E" transform="matrix(1,0,0,1,4993.258525799551,-901.5) translate(22.025 17.1)"/></g><g filter="url(#an)"><path d="M4440-150a8 8 0 0 1 8-8h184a8 8 0 0 1 8 8v472a8 8 0 0 1-8 8h-184a8 8 0 0 1-8-8z" fill="#fff"/><path d="M4440-150a8 8 0 0 1 8-8h184a8 8 0 0 1 8 8v472a8 8 0 0 1-8 8h-184a8 8 0 0 1-8-8zM4440-118h200M4548.26-118v448" stroke="#3a414a" stroke-width="4" fill="none"/><use xlink:href="#aq" transform="matrix(1,0,0,1,4450,-158) translate(31.049999999999997 23.6)"/><use xlink:href="#z" transform="matrix(1,0,0,1,4445,-115.5) translate(42.525 17.1)"/><use xlink:href="#A" transform="matrix(1,0,0,1,4553.258525799551,-115.5) translate(19.05 17.1)"/><use xlink:href="#U" transform="matrix(1,0,0,1,4445,-83.5) translate(9.549999999999997 17.1)"/><use xlink:href="#A" transform="matrix(1,0,0,1,4553.258525799551,-83.5) translate(19.05 17.1)"/><use xlink:href="#V" transform="matrix(1,0,0,1,4445,-51.5) translate(28.074999999999996 17.1)"/><use xlink:href="#A" transform="matrix(1,0,0,1,4553.258525799551,-51.5) translate(19.05 17.1)"/><use xlink:href="#W" transform="matrix(1,0,0,1,4445,-19.5) translate(11.049999999999997 17.1)"/><use xlink:href="#A" transform="matrix(1,0,0,1,4553.258525799551,-19.5) translate(19.05 17.1)"/><use xlink:href="#X" transform="matrix(1,0,0,1,4445,12.5) translate(17.525 17.1)"/><use xlink:href="#A" transform="matrix(1,0,0,1,4553.258525799551,12.5) translate(19.05 17.1)"/><use xlink:href="#Y" transform="matrix(1,0,0,1,4445,44.5) translate(24.5 17.1)"/><use xlink:href="#A" transform="matrix(1,0,0,1,4553.258525799551,44.5) translate(19.05 17.1)"/><use xlink:href="#Z" transform="matrix(1,0,0,1,4445,76.5) translate(14.549999999999997 17.1)"/><use xlink:href="#E" transform="matrix(1,0,0,1,4553.258525799551,76.5) translate(22.025 17.1)"/><use xlink:href="#aa" transform="matrix(1,0,0,1,4445,108.5) translate(21.525 17.1)"/><use xlink:href="#A" transform="matrix(1,0,0,1,4553.258525799551,108.5) translate(19.05 17.1)"/><use xlink:href="#N" transform="matrix(1,0,0,1,4445,140.5) translate(25.5 17.1)"/><use xlink:href="#O" transform="matrix(1,0,0,1,4553.258525799551,140.5) translate(9.024999999999999 17.1)"/><use xlink:href="#ab" transform="matrix(1,0,0,1,4445,172.5) translate(24.525 17.1)"/><use xlink:href="#A" transform="matrix(1,0,0,1,4553.258525799551,172.5) translate(19.05 17.1)"/><use xlink:href="#D" transform="matrix(1,0,0,1,4445,204.5) translate(7.024999999999999 17.1)"/><use xlink:href="#E" transform="matrix(1,0,0,1,4553.258525799551,204.5) translate(22.025 17.1)"/><use xlink:href="#ac" transform="matrix(1,0,0,1,4445,236.5) translate(9.5 17.1)"/><use xlink:href="#E" transform="matrix(1,0,0,1,4553.258525799551,236.5) translate(22.025 17.1)"/><use xlink:href="#Q" transform="matrix(1,0,0,1,4445,268.5) translate(7.524999999999999 17.1)"/><use xlink:href="#E" transform="matrix(1,0,0,1,4553.258525799551,268.5) translate(22.025 17.1)"/><use xlink:href="#ap" transform="matrix(1,0,0,1,4445,300.5) translate(20.025 17.1)"/><use xlink:href="#E" transform="matrix(1,0,0,1,4553.258525799551,300.5) translate(22.025 17.1)"/></g><g filter="url(#an)"><path d="M3891-155.93a8 8 0 0 1 8-8h184a8 8 0 0 1 8 8v472a8 8 0 0 1-8 8h-184a8 8 0 0 1-8-8z" fill="#fff"/><path d="M3891-155.93a8 8 0 0 1 8-8h184a8 8 0 0 1 8 8v472a8 8 0 0 1-8 8h-184a8 8 0 0 1-8-8zM3891-123.93h200M3999.26-123.93v448" stroke="#3a414a" stroke-width="4" fill="none"/><use xlink:href="#ar" transform="matrix(1,0,0,1,3901,-163.9322840425093) translate(64.55 23.6)"/><use xlink:href="#z" transform="matrix(1,0,0,1,3896,-121.43228404250931) translate(42.525 17.1)"/><use xlink:href="#A" transform="matrix(1,0,0,1,4004.258525799551,-121.43228404250931) translate(19.05 17.1)"/><use xlink:href="#U" transform="matrix(1,0,0,1,3896,-89.43228404250931) translate(9.549999999999997 17.1)"/><use xlink:href="#A" transform="matrix(1,0,0,1,4004.258525799551,-89.43228404250931) translate(19.05 17.1)"/><use xlink:href="#V" transform="matrix(1,0,0,1,3896,-57.43228404250931) translate(28.074999999999996 17.1)"/><use xlink:href="#A" transform="matrix(1,0,0,1,4004.258525799551,-57.43228404250931) translate(19.05 17.1)"/><use xlink:href="#W" transform="matrix(1,0,0,1,3896,-25.43228404250931) translate(11.049999999999997 17.1)"/><use xlink:href="#A" transform="matrix(1,0,0,1,4004.258525799551,-25.43228404250931) translate(19.05 17.1)"/><use xlink:href="#X" transform="matrix(1,0,0,1,3896,6.567715957490691) translate(17.525 17.1)"/><use xlink:href="#A" transform="matrix(1,0,0,1,4004.258525799551,6.567715957490691) translate(19.05 17.1)"/><use xlink:href="#Y" transform="matrix(1,0,0,1,3896,38.56771595749069) translate(24.5 17.1)"/><use xlink:href="#A" transform="matrix(1,0,0,1,4004.258525799551,38.56771595749069) translate(19.05 17.1)"/><use xlink:href="#Z" transform="matrix(1,0,0,1,3896,70.56771595749069) translate(14.549999999999997 17.1)"/><use xlink:href="#E" transform="matrix(1,0,0,1,4004.258525799551,70.56771595749069) translate(22.025 17.1)"/><use xlink:href="#aa" transform="matrix(1,0,0,1,3896,102.56771595749069) translate(21.525 17.1)"/><use xlink:href="#A" transform="matrix(1,0,0,1,4004.258525799551,102.56771595749069) translate(19.05 17.1)"/><use xlink:href="#N" transform="matrix(1,0,0,1,3896,134.5677159574907) translate(25.5 17.1)"/><use xlink:href="#O" transform="matrix(1,0,0,1,4004.258525799551,134.5677159574907) translate(9.024999999999999 17.1)"/><use xlink:href="#ab" transform="matrix(1,0,0,1,3896,166.5677159574907) translate(24.525 17.1)"/><use xlink:href="#A" transform="matrix(1,0,0,1,4004.258525799551,166.5677159574907) translate(19.05 17.1)"/><use xlink:href="#D" transform="matrix(1,0,0,1,3896,198.5677159574907) translate(7.024999999999999 17.1)"/><use xlink:href="#E" transform="matrix(1,0,0,1,4004.258525799551,198.5677159574907) translate(22.025 17.1)"/><use xlink:href="#ac" transform="matrix(1,0,0,1,3896,230.5677159574907) translate(9.5 17.1)"/><use xlink:href="#E" transform="matrix(1,0,0,1,4004.258525799551,230.5677159574907) translate(22.025 17.1)"/><use xlink:href="#Q" transform="matrix(1,0,0,1,3896,262.5677159574907) translate(7.524999999999999 17.1)"/><use xlink:href="#E" transform="matrix(1,0,0,1,4004.258525799551,262.5677159574907) translate(22.025 17.1)"/><use xlink:href="#ap" transform="matrix(1,0,0,1,3896,294.5677159574907) translate(20.025 17.1)"/><use xlink:href="#E" transform="matrix(1,0,0,1,4004.258525799551,294.5677159574907) translate(22.025 17.1)"/></g><g filter="url(#x)"><path d="M4263.5-490a8 8 0 0 1 8-8h184a8 8 0 0 1 8 8v184a8 8 0 0 1-8 8h-184a8 8 0 0 1-8-8z" fill="#fff"/><path d="M4263.5-490a8 8 0 0 1 8-8h184a8 8 0 0 1 8 8v184a8 8 0 0 1-8 8h-184a8 8 0 0 1-8-8zM4263.5-458h200M4363.5-458v160" stroke="#3a414a" stroke-width="4" fill="none"/><use xlink:href="#as" transform="matrix(1,0,0,1,4273.5,-498) translate(48.099999999999994 23.6)"/><use xlink:href="#z" transform="matrix(1,0,0,1,4268.5,-455.5) translate(38.525 17.1)"/><use xlink:href="#A" transform="matrix(1,0,0,1,4368.509443861491,-455.5) translate(23.05 17.1)"/><use xlink:href="#B" transform="matrix(1,0,0,1,4268.5,-423.5) translate(23.025 17.1)"/><use xlink:href="#A" transform="matrix(1,0,0,1,4368.509443861491,-423.5) translate(23.05 17.1)"/><use xlink:href="#C" transform="matrix(1,0,0,1,4268.5,-391.5) translate(2.0749999999999957 17.1)"/><use xlink:href="#A" transform="matrix(1,0,0,1,4368.509443861491,-391.5) translate(23.05 17.1)"/><use xlink:href="#D" transform="matrix(1,0,0,1,4268.5,-359.5) translate(3.0249999999999986 17.1)"/><use xlink:href="#E" transform="matrix(1,0,0,1,4368.509443861491,-359.5) translate(26.025 17.1)"/><use xlink:href="#F" transform="matrix(1,0,0,1,4268.5,-327.5) translate(0.5 17.1)"/><use xlink:href="#E" transform="matrix(1,0,0,1,4368.509443861491,-327.5) translate(26.025 17.1)"/></g><path d="M4682.48 45.46l-.16 1.93-.45 1.9-.75 1.8-1.03 1.67-1.28 1.5-1.5 1.26-1.66 1.03-1.8.75-1.9.46-1.94.16H4662v-.95h7.98l1.82-.15 1.76-.42 1.67-.7 1.54-.94 1.38-1.17 1.17-1.4.95-1.53.7-1.67.4-1.76.15-1.82V-125.3h.95zm-142-1177.48l.14 1.82.42 1.76.7 1.67.94 1.54 1.17 1.38 1.38 1.17 1.54.95 1.67.7 1.76.4 1.82.16h118l1.93.15 1.9.45 1.8.75 1.68 1.03 1.5 1.28 1.26 1.5 1.02 1.66.75 1.8.45 1.9.16 1.94v961.1h-.95v-961.06l-.15-1.82-.42-1.76-.7-1.67-.94-1.54-1.17-1.38-1.38-1.17-1.54-.95-1.67-.7-1.76-.4-1.82-.16h-118l-1.93-.15-1.9-.45-1.8-.75-1.68-1.03-1.5-1.28-1.26-1.5-1.02-1.66-.75-1.8-.45-1.9-.16-1.94v-8.02h.95z" stroke="#3a414a" stroke-width=".05" fill="#3a414a"/><path d="M4642.22 47.44l20 10-20 10" fill="#fff" fill-opacity="0"/><path d="M4663.3 57.44l-20.86 10.42-.43-.84 19.16-9.58-19.15-9.57.44-.85z" stroke="#3a414a" stroke-width=".05" fill="#3a414a"/><path fill="#fff"/><path d="M4662.22 57.91l-20 .02v-.95h20z" stroke="#3a414a" stroke-width=".05" fill="#3a414a"/><path fill="#fff"/><path d="M4662.7 67.44h-.95v-20h.95z" stroke="#3a414a" stroke-width=".05" fill="#3a414a"/><path d="M4550-1159.78l-10 20-10-20" fill="#fff" fill-opacity="0"/><path d="M4550.43-1159.56L4540-1138.7l-10.43-20.86.86-.43 9.57 19.16 9.57-19.15z" stroke="#3a414a" stroke-width=".05" fill="#3a414a"/><path fill="#fff"/><path d="M4540.48-1139.78h-.95v-20h.95z" stroke="#3a414a" stroke-width=".05" fill="#3a414a"/><path fill="#fff"/><path d="M4550-1139.3h-20v-.95h20zM4540.48-180h-.95v-104.06h.95zm-10.53-230.56l1.9.45 1.8.74 1.68 1.03 1.5 1.27 1.26 1.5 1.02 1.66.75 1.8.45 1.9.16 1.94v92.6h-.95v-92.56l-.15-1.82-.42-1.76-.7-1.67-.94-1.54-1.17-1.4-1.38-1.16-1.54-.95-1.67-.7-1.76-.42-1.82-.14h-42.48v-.95h42.52z" stroke="#3a414a" stroke-width=".05" fill="#3a414a"/><path d="M4465.72-420.24l20 10-20 10" fill="#fff" fill-opacity="0"/><path d="M4486.8-410.24l-20.86 10.43-.43-.87 19.16-9.57-19.15-9.57.44-.87z" stroke="#3a414a" stroke-width=".05" fill="#3a414a"/><path fill="#fff"/><path d="M4485.72-409.76h-20v-.95h20z" stroke="#3a414a" stroke-width=".05" fill="#3a414a"/><path fill="#fff"/><path d="M4486.2-400.24h-.95v-20h.95z" stroke="#3a414a" stroke-width=".05" fill="#3a414a"/><path d="M4530-160.22l10-20 10 20" fill="#fff" fill-opacity="0"/><path d="M4550.43-160.44l-.86.43-9.57-19.16-9.57 19.15-.86-.44L4540-181.3z" stroke="#3a414a" stroke-width=".05" fill="#3a414a"/><path fill="#fff"/><path d="M4540.48-160.22h-.95v-20h.95z" stroke="#3a414a" stroke-width=".05" fill="#3a414a"/><path fill="#fff"/><path d="M4550-179.75h-20v-.95h20z" stroke="#3a414a" stroke-width=".05" fill="#3a414a"/><use xlink:href="#at" transform="matrix(1,0,0,1,4503.5,-305.66059960452213) translate(0.005000000000002558 14.4)"/><use xlink:href="#au" transform="matrix(1,0,0,1,4503.5,-305.66059960452213) translate(34.005 14.4)"/><path d="M4140.75-230.5h-137.73l-1.82.15-1.76.42-1.67.7-1.54.94-1.38 1.2-1.17 1.36-.95 1.54-.7 1.67-.4 1.76-.16 1.82v33.02h-.94V-219l.15-1.92.45-1.9.75-1.8 1.03-1.68 1.28-1.5 1.5-1.26 1.66-1.02 1.8-.75 1.9-.46 1.94-.14h137.77zm223.23-12.45l-.16 1.94-.45 1.9-.75 1.8-1.03 1.67-1.28 1.5-1.5 1.26-1.66 1.02-1.8.75-1.9.46-1.94.15h-137.77v-.94h137.73l1.82-.14 1.76-.43 1.67-.7 1.54-.94 1.38-1.18 1.17-1.37.95-1.54.7-1.66.4-1.76.15-1.83v-33h.95z" stroke="#3a414a" stroke-width=".05" fill="#3a414a"/><path d="M3981-166.16l10-20 10 20" fill="#fff" fill-opacity="0"/><path d="M4001.43-166.37l-.86.43-9.57-19.15-9.57 19.16-.86-.43 10.43-20.85z" stroke="#3a414a" stroke-width=".05" fill="#3a414a"/><path fill="#fff"/><path d="M3991.47-166.16h-.94v-20h.94z" stroke="#3a414a" stroke-width=".05" fill="#3a414a"/><path fill="#fff"/><path d="M4001-185.68h-20v-.95h20z" stroke="#3a414a" stroke-width=".05" fill="#3a414a"/><path d="M4373.5-295.78l-10 20-10-20" fill="#fff" fill-opacity="0"/><path d="M4373.93-295.56l-10.43 20.85-10.43-20.86.86-.43 9.57 19.16 9.57-19.15z" stroke="#3a414a" stroke-width=".05" fill="#3a414a"/><path fill="#fff"/><path d="M4363.98-275.78h-.95v-20h.95z" stroke="#3a414a" stroke-width=".05" fill="#3a414a"/><path fill="#fff"/><path d="M4373.5-275.3h-20v-.95h20z" stroke="#3a414a" stroke-width=".05" fill="#3a414a"/><use xlink:href="#at" transform="matrix(1,0,0,1,4140.75,-241.76614202125467) translate(0.005000000000002558 14.4)"/><use xlink:href="#au" transform="matrix(1,0,0,1,4140.75,-241.76614202125467) translate(34.005 14.4)"/><path d="M3849.47-91.07l.15 1.82.42 1.76.7 1.68.94 1.54 1.17 1.38 1.38 1.17 1.54.95 1.67.7 1.76.4 1.82.15h7.98v.95h-8.02l-1.93-.15-1.9-.46-1.8-.74-1.68-1.02-1.5-1.27-1.26-1.5-1.02-1.66-.75-1.8-.45-1.9-.15-1.93v-158.7h.94zm71-250.9l-.15 1.92-.45 1.9-.75 1.8-1.03 1.68-1.28 1.5-1.5 1.26-1.66 1.02-1.8.75-1.9.45-1.94.16h-47l-1.82.14-1.76.42-1.67.7-1.54.94-1.38 1.17-1.17 1.38-.95 1.54-.7 1.67-.4 1.76-.16 1.82v46.64h-.94v-46.68l.15-1.93.45-1.9.75-1.8 1.03-1.68 1.28-1.5 1.5-1.26 1.66-1.02 1.8-.75 1.9-.45 1.94-.16h47l1.82-.14 1.76-.42 1.67-.7 1.54-.94 1.38-1.17 1.17-1.38.95-1.54.7-1.67.4-1.76.16-1.82V-350h.94z" stroke="#3a414a" stroke-width=".05" fill="#3a414a"/><path fill="#fff"/><path d="M3879.47-69.05h-.94v-20h.94z" stroke="#3a414a" stroke-width=".05" fill="#3a414a"/><path fill="#fff"/><path d="M3889-78.58h-20v-.95h20z" stroke="#3a414a" stroke-width=".05" fill="#3a414a"/><path fill="#fff"/><path d="M3869.47-69.05h-.94v-20h.94z" stroke="#3a414a" stroke-width=".05" fill="#3a414a"/><path fill="#fff"/><path d="M3930-359.52h-20v-.96h20z" stroke="#3a414a" stroke-width=".05" fill="#3a414a"/><path fill="#fff"/><path d="M3920.47-350h-.94v-20h.94z" stroke="#3a414a" stroke-width=".05" fill="#3a414a"/><path fill="#fff"/><path d="M3930-349.52h-20v-.96h20z" stroke="#3a414a" stroke-width=".05" fill="#3a414a"/><use xlink:href="#at" transform="matrix(1,0,0,1,3812.5000162881406,-271.3392357290939) translate(0.005000000000002558 14.4)"/><use xlink:href="#au" transform="matrix(1,0,0,1,3812.5000162881406,-271.3392357290939) translate(34.005 14.4)"/><path d="M4265.98-1389.12l-.16 1.93-.45 1.92-.75 1.8-1.03 1.68-1.28 1.48-1.5 1.28-1.66 1.02-1.8.75-1.9.45-1.94.16H4153v-.95h100.48l1.82-.16 1.76-.42 1.67-.7 1.54-.93 1.38-1.2 1.17-1.36.95-1.55.7-1.68.4-1.76.15-1.82v-22.17h.95zm112.02-77.53h-100.48l-1.82.14-1.76.42-1.67.7-1.54.93-1.38 1.18-1.17 1.37-.95 1.54-.7 1.67-.4 1.77-.15 1.82v22.17h-.95v-22.2l.15-1.95.45-1.9.75-1.8 1.03-1.68 1.28-1.5 1.5-1.26 1.66-1.02 1.8-.75 1.9-.45 1.94-.15H4378z" stroke="#3a414a" stroke-width=".05" fill="#3a414a"/><path d="M4133.22-1387.14l20 10-20 10" fill="#fff" fill-opacity="0"/><path d="M4154.3-1377.14l-20.86 10.43-.43-.86 19.16-9.58-19.15-9.57.44-.86z" stroke="#3a414a" stroke-width=".05" fill="#3a414a"/><path fill="#fff"/><path d="M4153.22-1376.66h-20v-.95h20z" stroke="#3a414a" stroke-width=".05" fill="#3a414a"/><path fill="#fff"/><path d="M4153.7-1367.14h-.95v-20h.95z" stroke="#3a414a" stroke-width=".05" fill="#3a414a"/><path d="M4397.78-1457.13l-20-10 20-10" fill="#fff" fill-opacity="0"/><path d="M4398-1476.7l-19.16 9.58 19.15 9.57-.44.85-20.85-10.42 20.86-10.43z" stroke="#3a414a" stroke-width=".05" fill="#3a414a"/><path fill="#fff"/><path d="M4397.78-1466.65h-20v-.95h20z" stroke="#3a414a" stroke-width=".05" fill="#3a414a"/><path fill="#fff"/><path d="M4378.25-1457.13h-.95v-20h.95z" stroke="#3a414a" stroke-width=".05" fill="#3a414a"/><use xlink:href="#av" transform="matrix(1,0,0,1,4206.5499848773225,-1432.9310076907211) translate(0.005000000000002558 14.4)"/><use xlink:href="#aw" transform="matrix(1,0,0,1,4206.5499848773225,-1432.9310076907211) translate(5.005000000000003 14.4)"/><use xlink:href="#ax" transform="matrix(1,0,0,1,4206.5499848773225,-1432.9310076907211) translate(25.005000000000003 14.4)"/><use xlink:href="#ay" transform="matrix(1,0,0,1,4206.5499848773225,-1432.9310076907211) translate(67.905 14.4)"/><use xlink:href="#aw" transform="matrix(1,0,0,1,4206.5499848773225,-1432.9310076907211) translate(77.905 14.4)"/><use xlink:href="#az" transform="matrix(1,0,0,1,4206.5499848773225,-1432.9310076907211) translate(97.905 14.4)"/><path d="M4969.95-1532.32l1.9.45 1.8.75 1.68 1.03 1.5 1.28 1.26 1.5 1.02 1.66.75 1.8.45 1.9.16 1.94V-1382h-.95v-137.98l-.15-1.82-.42-1.76-.7-1.67-.94-1.54-1.17-1.38-1.38-1.17-1.54-.95-1.67-.7-1.76-.4-1.82-.16h-32.9v-.94H4968zm-267.95.8v-.95h96.17v.94z" stroke="#3a414a" stroke-width=".05" fill="#3a414a"/><path d="M4682.22-1542l20 10-20 10" fill="#fff" fill-opacity="0"/><path d="M4703.3-1532l-20.86 10.42-.43-.85 19.16-9.57-19.15-9.58.44-.85z" stroke="#3a414a" stroke-width=".05" fill="#3a414a"/><path fill="#fff"/><path d="M4702.22-1531.53h-20v-.94h20z" stroke="#3a414a" stroke-width=".05" fill="#3a414a"/><path fill="#fff"/><path d="M4702.7-1522h-.95v-20h.95z" stroke="#3a414a" stroke-width=".05" fill="#3a414a"/><path d="M4970-1362.22l10-20 10 20" fill="#fff" fill-opacity="0"/><path d="M4990.43-1362.44l-.86.43-9.57-19.16-9.57 19.15-.86-.44 10.43-20.85z" stroke="#3a414a" stroke-width=".05" fill="#3a414a"/><path fill="#fff"/><path d="M4980.48-1362.22h-.95v-20h.95z" stroke="#3a414a" stroke-width=".05" fill="#3a414a"/><path fill="#fff"/><path d="M4990-1381.75h-20v-.95h20z" stroke="#3a414a" stroke-width=".05" fill="#3a414a"/><use xlink:href="#aA" transform="matrix(1,0,0,1,4798.166839168501,-1542.7999181614537) translate(0.0049999999999954525 14.4)"/><use xlink:href="#aB" transform="matrix(1,0,0,1,4798.166839168501,-1542.7999181614537) translate(20.004999999999995 14.4)"/><use xlink:href="#aC" transform="matrix(1,0,0,1,4798.166839168501,-1542.7999181614537) translate(45.004999999999995 14.4)"/><use xlink:href="#aB" transform="matrix(1,0,0,1,4798.166839168501,-1542.7999181614537) translate(70.005 14.4)"/><use xlink:href="#aD" transform="matrix(1,0,0,1,4798.166839168501,-1542.7999181614537) translate(95.005 14.4)"/><path d="M4973.98-542h-.95v-143.2h.95zm6.5-164.8h-.95V-850h.95z" stroke="#3a414a" stroke-width=".05" fill="#3a414a"/><path d="M4990-869.78l-10 20-10-20" fill="#fff" fill-opacity="0"/><path d="M4990.43-869.56L4980-848.7l-10.43-20.86.86-.43 9.57 19.16 9.57-19.15z" stroke="#3a414a" stroke-width=".05" fill="#3a414a"/><path fill="#fff"/><path d="M4980.48-849.78h-.95v-20h.95z" stroke="#3a414a" stroke-width=".05" fill="#3a414a"/><path fill="#fff"/><path d="M4990-849.3h-20v-.95h20z" stroke="#3a414a" stroke-width=".05" fill="#3a414a"/><path d="M4963.5-522.22l10-20 10 20" fill="#fff" fill-opacity="0"/><path d="M4983.93-522.44l-.86.43-9.57-19.16-9.57 19.15-.86-.44 10.43-20.85z" stroke="#3a414a" stroke-width=".05" fill="#3a414a"/><path fill="#fff"/><path d="M4973.98-522.22h-.95v-20h.95z" stroke="#3a414a" stroke-width=".05" fill="#3a414a"/><path fill="#fff"/><path d="M4983.5-541.75h-20v-.95h20z" stroke="#3a414a" stroke-width=".05" fill="#3a414a"/><use xlink:href="#aE" transform="matrix(1,0,0,1,4889.275,-706.8) translate(0.0049999999999954525 14.4)"/><use xlink:href="#aw" transform="matrix(1,0,0,1,4889.275,-706.8) translate(90.955 14.4)"/><use xlink:href="#aC" transform="matrix(1,0,0,1,4889.275,-706.8) translate(110.955 14.4)"/><use xlink:href="#au" transform="matrix(1,0,0,1,4889.275,-706.8) translate(135.95499999999998 14.4)"/><path d="M4753.98 110.74l-.16 1.93-.45 1.9-.75 1.8-1.03 1.68-1.28 1.5-1.5 1.26-1.66 1.04-1.8.75-1.9.44-1.94.15H4662v-.95h79.48l1.82-.15 1.76-.42 1.67-.7 1.54-.94 1.38-1.17 1.17-1.38.95-1.55.7-1.67.4-1.76.15-1.82v-236h.95zm91.6-505.2h-80.06l-1.82.13-1.76.43-1.67.7-1.54.93-1.38 1.18-1.17 1.38-.95 1.55-.7 1.67-.4 1.75-.15 1.82v236.02h-.95v-236.06l.15-1.94.45-1.9.75-1.8 1.03-1.68 1.28-1.5 1.5-1.26 1.66-1.02 1.8-.75 1.9-.47 1.94-.15h80.1z" stroke="#3a414a" stroke-width=".05" fill="#3a414a"/><path fill="#fff"/><path d="M4662.48 132.72h-.95v-20h.95z" stroke="#3a414a" stroke-width=".05" fill="#3a414a"/><path fill="#fff"/><path d="M4662 123.2h-20v-.95h20z" stroke="#3a414a" stroke-width=".05" fill="#3a414a"/><path d="M4864.78-384.94l-20-10 20-10" fill="#fff" fill-opacity="0"/><path d="M4865-404.52l-19.16 9.58 19.15 9.57-.44.85-20.85-10.42 20.86-10.43z" stroke="#3a414a" stroke-width=".05" fill="#3a414a"/><path fill="#fff"/><path d="M4864.78-394.47h-20v-.95h20z" stroke="#3a414a" stroke-width=".05" fill="#3a414a"/><use xlink:href="#aE" transform="matrix(1,0,0,1,4663.525004566009,-146.91183930885023) translate(0.0049999999999954525 14.4)"/><use xlink:href="#aw" transform="matrix(1,0,0,1,4663.525004566009,-146.91183930885023) translate(90.955 14.4)"/><use xlink:href="#ay" transform="matrix(1,0,0,1,4663.525004566009,-146.91183930885023) translate(110.955 14.4)"/><use xlink:href="#aw" transform="matrix(1,0,0,1,4663.525004566009,-146.91183930885023) translate(120.955 14.4)"/><use xlink:href="#au" transform="matrix(1,0,0,1,4663.525004566009,-146.91183930885023) translate(140.95499999999998 14.4)"/><path d="M4304-859.8h-22v-.96h22zm194-1.25h-22v-.95h22z" stroke="#3a414a" stroke-width=".05" fill="#3a414a"/><path fill="#fff"/><path d="M4272.48-850.28h-.95v-20h.95z" stroke="#3a414a" stroke-width=".05" fill="#3a414a"/><path fill="#fff"/><path d="M4282-859.8h-20v-.96h20z" stroke="#3a414a" stroke-width=".05" fill="#3a414a"/><path fill="#fff"/><path d="M4282.48-850.28h-.95v-20h.95z" stroke="#3a414a" stroke-width=".05" fill="#3a414a"/><path d="M4517.78-851.52l-20-10 20-10" fill="#fff" fill-opacity="0"/><path d="M4518-871.1l-19.16 9.58 19.15 9.57-.44.86-20.85-10.42 20.86-10.43z" stroke="#3a414a" stroke-width=".05" fill="#3a414a"/><path fill="#fff"/><path d="M4517.78-861.04h-20v-.96h20z" stroke="#3a414a" stroke-width=".05" fill="#3a414a"/><path fill="#fff"/><path d="M4498.25-851.52h-.95v-20h.95z" stroke="#3a414a" stroke-width=".05" fill="#3a414a"/><use xlink:href="#at" transform="matrix(1,0,0,1,4303.9999776760715,-871.7022213026615) translate(0.0049999999999954525 14.4)"/><use xlink:href="#aB" transform="matrix(1,0,0,1,4303.9999776760715,-871.7022213026615) translate(34.004999999999995 14.4)"/><use xlink:href="#aF" transform="matrix(1,0,0,1,4303.9999776760715,-871.7022213026615) translate(59.004999999999995 14.4)"/><use xlink:href="#ay" transform="matrix(1,0,0,1,4303.9999776760715,-871.7022213026615) translate(103.005 14.4)"/><use xlink:href="#aw" transform="matrix(1,0,0,1,4303.9999776760715,-871.7022213026615) translate(113.005 14.4)"/><use xlink:href="#aG" transform="matrix(1,0,0,1,4303.9999776760715,-871.7022213026615) translate(133.005 14.4)"/><path d="M5122.48 235.75l-.16 1.94-.45 1.9-.75 1.8-1.03 1.67-1.28 1.5-1.5 1.26-1.66 1.02-1.8.75-1.9.46-1.94.15H5102v-.94h7.98l1.82-.14 1.76-.43 1.67-.7 1.54-.94 1.38-1.18 1.17-1.37.95-1.53.7-1.68.4-1.76.15-1.82v-657h.95zm-10.53-1348l1.9.46 1.8.76 1.68 1.03 1.5 1.26 1.26 1.5 1.02 1.66.75 1.8.45 1.9.16 1.94v657.05h-.95v-657l-.15-1.82-.42-1.76-.7-1.67-.94-1.54-1.17-1.37-1.38-1.17-1.54-.95-1.67-.68-1.76-.42-1.82-.14H5102v-.95h8.02z" stroke="#3a414a" stroke-width=".05" fill="#3a414a"/><path d="M5082.22 237.73l20 10-20 10" fill="#fff" fill-opacity="0"/><path d="M5103.3 247.73l-20.86 10.43-.43-.85 19.16-9.57-19.15-9.57.44-.85z" stroke="#3a414a" stroke-width=".05" fill="#3a414a"/><path fill="#fff"/><path d="M5102.22 248.2h-20v-.94h20z" stroke="#3a414a" stroke-width=".05" fill="#3a414a"/><path fill="#fff"/><path d="M5102.7 257.73h-.95v-20h.95z" stroke="#3a414a" stroke-width=".05" fill="#3a414a"/><path d="M5082.22-1121.92l20 10-20 10" fill="#fff" fill-opacity="0"/><path d="M5103.3-1111.92l-20.86 10.43-.43-.85 19.16-9.57-19.15-9.57.44-.85z" stroke="#3a414a" stroke-width=".05" fill="#3a414a"/><path fill="#fff"/><path d="M5102.22-1111.44h-20v-.95h20z" stroke="#3a414a" stroke-width=".05" fill="#3a414a"/><path fill="#fff"/><path d="M5102.7-1101.92h-.95v-20h.95z" stroke="#3a414a" stroke-width=".05" fill="#3a414a"/><use xlink:href="#at" transform="matrix(1,0,0,1,5035.999950864406,-442.8933267727336) translate(0.0049999999999954525 14.4)"/><use xlink:href="#aB" transform="matrix(1,0,0,1,5035.999950864406,-442.8933267727336) translate(34.004999999999995 14.4)"/><use xlink:href="#aF" transform="matrix(1,0,0,1,5035.999950864406,-442.8933267727336) translate(59.004999999999995 14.4)"/><use xlink:href="#ay" transform="matrix(1,0,0,1,5035.999950864406,-442.8933267727336) translate(103.005 14.4)"/><use xlink:href="#aw" transform="matrix(1,0,0,1,5035.999950864406,-442.8933267727336) translate(113.005 14.4)"/><use xlink:href="#au" transform="matrix(1,0,0,1,5035.999950864406,-442.8933267727336) translate(133.005 14.4)"/><path d="M4759.95 155.04l1.9.45 1.8.74 1.68 1.03 1.5 1.27 1.26 1.5 1.02 1.66.75 1.8.45 1.9.16 1.94v68.38l.1 1.2h-.96l-.1-1.17v-68.37l-.14-1.82-.42-1.76-.7-1.67-.94-1.54-1.17-1.4-1.38-1.16-1.54-.95-1.67-.7-1.76-.42-1.82-.14H4662v-.96h96.02z" stroke="#3a414a" stroke-width=".05" fill="#3a414a"/><path fill="#fff" fill-opacity="0"/><path stroke="#3a414a" stroke-width=".05" fill="#3a414a"/><path fill="#fff"/><path stroke="#3a414a" stroke-width=".05" fill="#3a414a"/><path fill="#fff"/><path stroke="#3a414a" stroke-width=".05" fill="#3a414a"/><path d="M4642.22 145.36l20 10-20 10" fill="#fff" fill-opacity="0"/><path d="M4663.3 155.36l-20.86 10.42-.43-.84 19.16-9.58-19.15-9.58.44-.84z" stroke="#3a414a" stroke-width=".05" fill="#3a414a"/><path fill="#fff"/><path d="M4662.22 155.84h-20v-.96h20z" stroke="#3a414a" stroke-width=".05" fill="#3a414a"/><path fill="#fff"/><path d="M4662.7 165.36h-.95v-20h.95z" stroke="#3a414a" stroke-width=".05" fill="#3a414a"/><g><use xlink:href="#aA" transform="matrix(1,0,0,1,4741.337892149144,236.93333911111148) translate(0.0049999999999954525 14.4)"/><use xlink:href="#aH" transform="matrix(1,0,0,1,4741.337892149144,236.93333911111148) translate(20.004999999999995 14.4)"/><use xlink:href="#ay" transform="matrix(1,0,0,1,4741.337892149144,236.93333911111148) translate(64.005 14.4)"/><use xlink:href="#aw" transform="matrix(1,0,0,1,4741.337892149144,236.93333911111148) translate(74.005 14.4)"/><use xlink:href="#aB" transform="matrix(1,0,0,1,4741.337892149144,236.93333911111148) translate(94.005 14.4)"/><use xlink:href="#aI" transform="matrix(1,0,0,1,4741.337892149144,236.93333911111148) translate(119.005 14.4)"/></g><path d="M4113.23 116.33l.23.05.2.1.2.1.18.16.15.18.12.2.08.2.06.24.02.2V438l.14 1.82.42 1.76.7 1.67.94 1.54 1.17 1.38 1.38 1.17 1.54.95 1.67.7 1.76.4 1.82.15h826.75v.96h-826.8l-1.92-.16-1.9-.45-1.8-.75-1.68-1.03-1.5-1.28-1.26-1.5-1.02-1.66-.75-1.8-.45-1.9-.16-1.94v-320.3l-.02-.1-.03-.07-.05-.07-.05-.06-.06-.06-.06-.04-.08-.03-.08-.03h-.12l.08-.96zm973.72 3.35l1.9.45 1.8.75 1.68 1.03 1.5 1.28 1.26 1.5 1.02 1.66.75 1.8.45 1.9.16 1.94v306.04l-.16 1.93-.45 1.9-.75 1.8-.35.6V442l.2-.47.4-1.76.15-1.82V132.02l-.14-1.82-.42-1.76-.7-1.67-.94-1.54-1.17-1.38-1.38-1.17-1.54-.95-1.67-.7-1.76-.4-1.82-.16h-214.96l-1.82.15-1.76.42-1.67.7-1.54.94-1.38 1.17-1.17 1.38-.95 1.54-.7 1.67-.4 1.76-.15 1.82v104.9h-.95V132l.15-1.93.45-1.9.75-1.8 1.03-1.68 1.28-1.5 1.5-1.26 1.66-1.02 1.8-.75 1.9-.45 1.94-.16h215.04zm-228.47 181.46l.14 1.82.42 1.76.7 1.67.94 1.53 1.17 1.37 1.38 1.18 1.54.94 1.67.7 1.76.42 1.82.14h7.98v.95h-8.02l-1.93-.15-1.9-.46-1.8-.75-1.68-1.02-1.5-1.27-1.26-1.5-1.02-1.66-.75-1.8-.45-1.9-.16-1.95v-42.64h.95z" stroke="#3a414a" stroke-width=".05" fill="#3a414a"/><path d="M4897.78 323.16l-20-10 20-10" fill="#fff" fill-opacity="0"/><path d="M4898 303.58l-19.16 9.58 19.15 9.57-.44.85-20.85-10.42 20.86-10.43z" stroke="#3a414a" stroke-width=".05" fill="#3a414a"/><path fill="#fff"/><path d="M4897.78 313.63h-20v-.95h20z" stroke="#3a414a" stroke-width=".05" fill="#3a414a"/><path fill="#fff"/><path d="M4878.25 323.16h-.95v-20h.95z" stroke="#3a414a" stroke-width=".05" fill="#3a414a"/><path d="M4093.22 106.8l20 10-20 10" fill="#fff" fill-opacity="0"/><path d="M4114.3 116.8l-20.86 10.4-.43-.84 19.16-9.57-19.15-9.6.44-.84z" stroke="#3a414a" stroke-width=".05" fill="#3a414a"/><path fill="#fff"/><path d="M4113.22 117.26h-20v-.95h20z" stroke="#3a414a" stroke-width=".05" fill="#3a414a"/><path fill="#fff"/><path d="M4113.7 126.8h-.95v-20h.95z" stroke="#3a414a" stroke-width=".05" fill="#3a414a"/><g><use xlink:href="#aA" transform="matrix(1,0,0,1,4952.766984695172,439.2) translate(0.0049999999999954525 14.4)"/><use xlink:href="#aJ" transform="matrix(1,0,0,1,4952.766984695172,439.2) translate(20.004999999999995 14.4)"/><use xlink:href="#aI" transform="matrix(1,0,0,1,4952.766984695172,439.2) translate(104.005 14.4)"/></g><defs><path fill="#333" d="M30-248c87 1 191-15 191 75 0 78-77 80-158 76V0H30v-248zm33 125c57 0 124 11 124-50 0-59-68-47-124-48v98" id="aK"/><path fill="#333" d="M106-169C34-169 62-67 57 0H25v-261h32l-1 103c12-21 28-36 61-36 89 0 53 116 60 194h-32v-121c2-32-8-49-39-48" id="aL"/><path fill="#333" d="M141-36C126-15 110 5 73 4 37 3 15-17 15-53c-1-64 63-63 125-63 3-35-9-54-41-54-24 1-41 7-42 31l-33-3c5-37 33-52 76-52 45 0 72 20 72 64v82c-1 20 7 32 28 27v20c-31 9-61-2-59-35zM48-53c0 20 12 33 32 33 41-3 63-29 60-74-43 2-92-5-92 41" id="aM"/><path fill="#333" d="M114-163C36-179 61-72 57 0H25l-1-190h30c1 12-1 29 2 39 6-27 23-49 58-41v29" id="aN"/><path fill="#333" d="M210-169c-67 3-38 105-44 169h-31v-121c0-29-5-50-35-48C34-165 62-65 56 0H25l-1-190h30c1 10-1 24 2 32 10-44 99-50 107 0 11-21 27-35 58-36 85-2 47 119 55 194h-31v-121c0-29-5-49-35-48" id="aO"/><path fill="#333" d="M-5 72V49h209v23H-5" id="aP"/><path fill="#333" d="M177-190C167-65 218 103 67 71c-23-6-38-20-44-43l32-5c15 47 100 32 89-28v-30C133-14 115 1 83 1 29 1 15-40 15-95c0-56 16-97 71-98 29-1 48 16 59 35 1-10 0-23 2-32h30zM94-22c36 0 50-32 50-73 0-42-14-75-50-75-39 0-46 34-46 75s6 73 46 73" id="aQ"/><path fill="#333" d="M100-194c63 0 86 42 84 106H49c0 40 14 67 53 68 26 1 43-12 49-29l28 8c-11 28-37 45-77 45C44 4 14-33 15-96c1-61 26-98 85-98zm52 81c6-60-76-77-97-28-3 7-6 17-6 28h103" id="aR"/><path fill="#333" d="M135-143c-3-34-86-38-87 0 15 53 115 12 119 90S17 21 10-45l28-5c4 36 97 45 98 0-10-56-113-15-118-90-4-57 82-63 122-42 12 7 21 19 24 35" id="aS"/><path fill="#333" d="M59-47c-2 24 18 29 38 22v24C64 9 27 4 27-40v-127H5v-23h24l9-43h21v43h35v23H59v120" id="aT"/><g id="b"><use transform="matrix(0.05,0,0,0.05,0,0)" xlink:href="#aK"/><use transform="matrix(0.05,0,0,0.05,12,0)" xlink:href="#aL"/><use transform="matrix(0.05,0,0,0.05,22,0)" xlink:href="#aM"/><use transform="matrix(0.05,0,0,0.05,32,0)" xlink:href="#aN"/><use transform="matrix(0.05,0,0,0.05,37.95,0)" xlink:href="#aO"/><use transform="matrix(0.05,0,0,0.05,52.900000000000006,0)" xlink:href="#aM"/><use transform="matrix(0.05,0,0,0.05,62.900000000000006,0)" xlink:href="#aP"/><use transform="matrix(0.05,0,0,0.05,72.9,0)" xlink:href="#aQ"/><use transform="matrix(0.05,0,0,0.05,82.9,0)" xlink:href="#aR"/><use transform="matrix(0.05,0,0,0.05,92.9,0)" xlink:href="#aS"/><use transform="matrix(0.05,0,0,0.05,101.9,0)" xlink:href="#aT"/></g><path fill="#333" d="M24-231v-30h32v30H24zM24 0v-190h32V0H24" id="aU"/><path fill="#333" d="M85-194c31 0 48 13 60 33l-1-100h32l1 261h-30c-2-10 0-23-3-31C134-8 116 4 85 4 32 4 16-35 15-94c0-66 23-100 70-100zm9 24c-40 0-46 34-46 75 0 40 6 74 45 74 42 0 51-32 51-76 0-42-9-74-50-73" id="aV"/><g id="c"><use transform="matrix(0.05,0,0,0.05,0,0)" xlink:href="#aU"/><use transform="matrix(0.05,0,0,0.05,3.95,0)" xlink:href="#aV"/></g><path fill="#333" d="M117-194c89-4 53 116 60 194h-32v-121c0-31-8-49-39-48C34-167 62-67 57 0H25l-1-190h30c1 10-1 24 2 32 11-22 29-35 61-36" id="aW"/><g id="d"><use transform="matrix(0.05,0,0,0.05,0,0)" xlink:href="#aS"/><use transform="matrix(0.05,0,0,0.05,9,0)" xlink:href="#aT"/><use transform="matrix(0.05,0,0,0.05,14,0)" xlink:href="#aN"/><use transform="matrix(0.05,0,0,0.05,19.95,0)" xlink:href="#aU"/><use transform="matrix(0.05,0,0,0.05,23.9,0)" xlink:href="#aW"/><use transform="matrix(0.05,0,0,0.05,33.9,0)" xlink:href="#aQ"/></g><g id="e"><use transform="matrix(0.05,0,0,0.05,0,0)" xlink:href="#aW"/><use transform="matrix(0.05,0,0,0.05,10,0)" xlink:href="#aM"/><use transform="matrix(0.05,0,0,0.05,20,0)" xlink:href="#aO"/><use transform="matrix(0.05,0,0,0.05,34.95,0)" xlink:href="#aR"/></g><path fill="#333" d="M24 0v-261h32V0H24" id="aX"/><g id="f"><use transform="matrix(0.05,0,0,0.05,0,0)" xlink:href="#aR"/><use transform="matrix(0.05,0,0,0.05,10,0)" xlink:href="#aO"/><use transform="matrix(0.05,0,0,0.05,24.950000000000003,0)" xlink:href="#aM"/><use transform="matrix(0.05,0,0,0.05,34.95,0)" xlink:href="#aU"/><use transform="matrix(0.05,0,0,0.05,38.900000000000006,0)" xlink:href="#aX"/></g><g id="g"><use transform="matrix(0.05,0,0,0.05,0,0)" xlink:href="#aM"/><use transform="matrix(0.05,0,0,0.05,10,0)" xlink:href="#aV"/><use transform="matrix(0.05,0,0,0.05,20,0)" xlink:href="#aV"/><use transform="matrix(0.05,0,0,0.05,30,0)" xlink:href="#aN"/><use transform="matrix(0.05,0,0,0.05,35.95,0)" xlink:href="#aR"/><use transform="matrix(0.05,0,0,0.05,45.95,0)" xlink:href="#aS"/><use transform="matrix(0.05,0,0,0.05,54.95,0)" xlink:href="#aS"/></g><path fill="#333" d="M115-194c55 1 70 41 70 98S169 2 115 4C84 4 66-9 55-30l1 105H24l-1-265h31l2 30c10-21 28-34 59-34zm-8 174c40 0 45-34 45-75s-6-73-45-74c-42 0-51 32-51 76 0 43 10 73 51 73" id="aY"/><path fill="#333" d="M100-194c62-1 85 37 85 99 1 63-27 99-86 99S16-35 15-95c0-66 28-99 85-99zM99-20c44 1 53-31 53-75 0-43-8-75-51-75s-53 32-53 75 10 74 51 75" id="aZ"/><g id="h"><use transform="matrix(0.05,0,0,0.05,0,0)" xlink:href="#aY"/><use transform="matrix(0.05,0,0,0.05,10,0)" xlink:href="#aL"/><use transform="matrix(0.05,0,0,0.05,20,0)" xlink:href="#aZ"/><use transform="matrix(0.05,0,0,0.05,30,0)" xlink:href="#aW"/><use transform="matrix(0.05,0,0,0.05,40,0)" xlink:href="#aR"/></g><path fill="#333" d="M101-234c-31-9-42 10-38 44h38v23H63V0H32v-167H5v-23h27c-7-52 17-82 69-68v24" id="ba"/><g id="i"><use transform="matrix(0.05,0,0,0.05,0,0)" xlink:href="#aU"/><use transform="matrix(0.05,0,0,0.05,3.95,0)" xlink:href="#aW"/><use transform="matrix(0.05,0,0,0.05,13.949999999999998,0)" xlink:href="#ba"/><use transform="matrix(0.05,0,0,0.05,18.95,0)" xlink:href="#aZ"/></g><path fill="#333" d="M108 0H70L1-190h34L89-25l56-165h34" id="bb"/><g id="j"><use transform="matrix(0.05,0,0,0.05,0,0)" xlink:href="#aM"/><use transform="matrix(0.05,0,0,0.05,10,0)" xlink:href="#bb"/><use transform="matrix(0.05,0,0,0.05,19,0)" xlink:href="#aM"/><use transform="matrix(0.05,0,0,0.05,29,0)" xlink:href="#aT"/><use transform="matrix(0.05,0,0,0.05,34,0)" xlink:href="#aM"/><use transform="matrix(0.05,0,0,0.05,44,0)" xlink:href="#aN"/></g><g id="k"><use transform="matrix(0.05,0,0,0.05,0,0)" xlink:href="#aX"/><use transform="matrix(0.05,0,0,0.05,3.95,0)" xlink:href="#aZ"/><use transform="matrix(0.05,0,0,0.05,13.949999999999998,0)" xlink:href="#aQ"/><use transform="matrix(0.05,0,0,0.05,23.95,0)" xlink:href="#aZ"/></g><path fill="#333" d="M96-169c-40 0-48 33-48 73s9 75 48 75c24 0 41-14 43-38l32 2c-6 37-31 61-74 61-59 0-76-41-82-99-10-93 101-131 147-64 4 7 5 14 7 22l-32 3c-4-21-16-35-41-35" id="bc"/><g id="l"><use transform="matrix(0.05,0,0,0.05,0,0)" xlink:href="#bc"/><use transform="matrix(0.05,0,0,0.05,9,0)" xlink:href="#aN"/><use transform="matrix(0.05,0,0,0.05,14.949999999999998,0)" xlink:href="#aR"/><use transform="matrix(0.05,0,0,0.05,24.95,0)" xlink:href="#aM"/><use transform="matrix(0.05,0,0,0.05,34.95,0)" xlink:href="#aT"/><use transform="matrix(0.05,0,0,0.05,39.95,0)" xlink:href="#aR"/><use transform="matrix(0.05,0,0,0.05,49.95,0)" xlink:href="#aV"/><use transform="matrix(0.05,0,0,0.05,59.95,0)" xlink:href="#aP"/><use transform="matrix(0.05,0,0,0.05,69.95,0)" xlink:href="#aM"/><use transform="matrix(0.05,0,0,0.05,79.95,0)" xlink:href="#aT"/></g><path fill="#333" d="M30-248c118-7 216 8 213 122C240-48 200 0 122 0H30v-248zM63-27c89 8 146-16 146-99s-60-101-146-95v194" id="bd"/><g id="m"><use transform="matrix(0.05,0,0,0.05,0,0)" xlink:href="#bd"/><use transform="matrix(0.05,0,0,0.05,12.950000000000001,0)" xlink:href="#aM"/><use transform="matrix(0.05,0,0,0.05,22.950000000000003,0)" xlink:href="#aT"/><use transform="matrix(0.05,0,0,0.05,27.950000000000003,0)" xlink:href="#aR"/></g><filter id="a" filterUnits="objectBoundingBox" x="-.04" y="-.01" width="1.07" height="1.06"><feOffset result="offOut" in="SourceAlpha" dy="6"/><feGaussianBlur result="blurOut" in="offOut" stdDeviation="5"/><feColorMatrix result="colorOut" in="blurOut" values="0 0 0 0 0 0 0 0 0 0 0 0 0 0 0 0 0 0 0.5019607843137255 0"/><feBlend in="SourceGraphic" in2="colorOut"/></filter><path fill="#333" d="M179-190L93 31C79 59 56 82 12 73V49c39 6 53-20 64-50L1-190h34L92-34l54-156h33" id="be"/><g id="o"><use transform="matrix(0.05,0,0,0.05,0,0)" xlink:href="#aK"/><use transform="matrix(0.05,0,0,0.05,12,0)" xlink:href="#aL"/><use transform="matrix(0.05,0,0,0.05,22,0)" xlink:href="#aM"/><use transform="matrix(0.05,0,0,0.05,32,0)" xlink:href="#aN"/><use transform="matrix(0.05,0,0,0.05,37.95,0)" xlink:href="#aO"/><use transform="matrix(0.05,0,0,0.05,52.900000000000006,0)" xlink:href="#aM"/><use transform="matrix(0.05,0,0,0.05,62.900000000000006,0)" xlink:href="#bc"/><use transform="matrix(0.05,0,0,0.05,71.9,0)" xlink:href="#be"/></g><g id="p"><use transform="matrix(0.05,0,0,0.05,0,0)" xlink:href="#aV"/><use transform="matrix(0.05,0,0,0.05,10,0)" xlink:href="#aZ"/><use transform="matrix(0.05,0,0,0.05,20,0)" xlink:href="#bc"/></g><path fill="#333" d="M84 4C-5 8 30-112 23-190h32v120c0 31 7 50 39 49 72-2 45-101 50-169h31l1 190h-30c-1-10 1-25-2-33-11 22-28 36-60 37" id="bf"/><g id="q"><use transform="matrix(0.05,0,0,0.05,0,0)" xlink:href="#aS"/><use transform="matrix(0.05,0,0,0.05,9,0)" xlink:href="#aT"/><use transform="matrix(0.05,0,0,0.05,14,0)" xlink:href="#aM"/><use transform="matrix(0.05,0,0,0.05,24,0)" xlink:href="#aT"/><use transform="matrix(0.05,0,0,0.05,29,0)" xlink:href="#bf"/><use transform="matrix(0.05,0,0,0.05,39,0)" xlink:href="#aS"/></g><path fill="#333" d="M115-194c53 0 69 39 70 98 0 66-23 100-70 100C84 3 66-7 56-30L54 0H23l1-261h32v101c10-23 28-34 59-34zm-8 174c40 0 45-34 45-75 0-40-5-75-45-74-42 0-51 32-51 76 0 43 10 73 51 73" id="bg"/><g id="r"><use transform="matrix(0.05,0,0,0.05,0,0)" xlink:href="#bg"/><use transform="matrix(0.05,0,0,0.05,10,0)" xlink:href="#aZ"/><use transform="matrix(0.05,0,0,0.05,20,0)" xlink:href="#aZ"/><use transform="matrix(0.05,0,0,0.05,30,0)" xlink:href="#aX"/><use transform="matrix(0.05,0,0,0.05,33.95,0)" xlink:href="#aR"/><use transform="matrix(0.05,0,0,0.05,43.95,0)" xlink:href="#aM"/><use transform="matrix(0.05,0,0,0.05,53.95,0)" xlink:href="#aW"/></g><g id="s"><use transform="matrix(0.05,0,0,0.05,0,0)" xlink:href="#bc"/><use transform="matrix(0.05,0,0,0.05,9,0)" xlink:href="#aN"/><use transform="matrix(0.05,0,0,0.05,14.949999999999998,0)" xlink:href="#aR"/><use transform="matrix(0.05,0,0,0.05,24.95,0)" xlink:href="#aT"/><use transform="matrix(0.05,0,0,0.05,29.950000000000003,0)" xlink:href="#aR"/><use transform="matrix(0.05,0,0,0.05,39.95,0)" xlink:href="#aV"/><use transform="matrix(0.05,0,0,0.05,49.95,0)" xlink:href="#aP"/><use transform="matrix(0.05,0,0,0.05,59.95,0)" xlink:href="#aM"/><use transform="matrix(0.05,0,0,0.05,69.95,0)" xlink:href="#aT"/></g><g id="t"><use transform="matrix(0.05,0,0,0.05,0,0)" xlink:href="#bf"/><use transform="matrix(0.05,0,0,0.05,10,0)" xlink:href="#aY"/><use transform="matrix(0.05,0,0,0.05,20,0)" xlink:href="#aV"/><use transform="matrix(0.05,0,0,0.05,30,0)" xlink:href="#aM"/><use transform="matrix(0.05,0,0,0.05,40,0)" xlink:href="#aT"/><use transform="matrix(0.05,0,0,0.05,45,0)" xlink:href="#aR"/><use transform="matrix(0.05,0,0,0.05,55,0)" xlink:href="#aV"/><use transform="matrix(0.05,0,0,0.05,65,0)" xlink:href="#aP"/><use transform="matrix(0.05,0,0,0.05,75,0)" xlink:href="#aM"/><use transform="matrix(0.05,0,0,0.05,85,0)" xlink:href="#aT"/></g><g id="u"><use transform="matrix(0.05,0,0,0.05,0,0)" xlink:href="#aV"/><use transform="matrix(0.05,0,0,0.05,10,0)" xlink:href="#aR"/><use transform="matrix(0.05,0,0,0.05,20,0)" xlink:href="#aX"/><use transform="matrix(0.05,0,0,0.05,23.95,0)" xlink:href="#aR"/><use transform="matrix(0.05,0,0,0.05,33.95,0)" xlink:href="#aT"/><use transform="matrix(0.05,0,0,0.05,38.95,0)" xlink:href="#aR"/><use transform="matrix(0.05,0,0,0.05,48.95,0)" xlink:href="#aV"/><use transform="matrix(0.05,0,0,0.05,58.95,0)" xlink:href="#aP"/><use transform="matrix(0.05,0,0,0.05,68.95,0)" xlink:href="#aM"/><use transform="matrix(0.05,0,0,0.05,78.95,0)" xlink:href="#aT"/></g><g id="v"><use transform="matrix(0.05,0,0,0.05,0,0)" xlink:href="#aV"/><use transform="matrix(0.05,0,0,0.05,10,0)" xlink:href="#aR"/><use transform="matrix(0.05,0,0,0.05,20,0)" xlink:href="#aX"/><use transform="matrix(0.05,0,0,0.05,23.95,0)" xlink:href="#aR"/><use transform="matrix(0.05,0,0,0.05,33.95,0)" xlink:href="#aT"/><use transform="matrix(0.05,0,0,0.05,38.95,0)" xlink:href="#aR"/><use transform="matrix(0.05,0,0,0.05,48.95,0)" xlink:href="#aV"/><use transform="matrix(0.05,0,0,0.05,58.95,0)" xlink:href="#aP"/><use transform="matrix(0.05,0,0,0.05,68.95,0)" xlink:href="#bg"/><use transform="matrix(0.05,0,0,0.05,78.95,0)" xlink:href="#be"/></g><g id="w"><use transform="matrix(0.05,0,0,0.05,0,0)" xlink:href="#aU"/><use transform="matrix(0.05,0,0,0.05,3.95,0)" xlink:href="#aO"/><use transform="matrix(0.05,0,0,0.05,18.900000000000002,0)" xlink:href="#aM"/><use transform="matrix(0.05,0,0,0.05,28.900000000000002,0)" xlink:href="#aQ"/><use transform="matrix(0.05,0,0,0.05,38.900000000000006,0)" xlink:href="#aR"/></g><filter id="n" filterUnits="objectBoundingBox" x="-.04" y="-.01" width="1.07" height="1.04"><feOffset result="offOut" in="SourceAlpha" dy="6"/><feGaussianBlur result="blurOut" in="offOut" stdDeviation="5"/><feColorMatrix result="colorOut" in="blurOut" values="0 0 0 0 0 0 0 0 0 0 0 0 0 0 0 0 0 0 0.5019607843137255 0"/><feBlend in="SourceGraphic" in2="colorOut"/></filter><path fill="#3a414a" d="M212-179c-10-28-35-45-73-45-59 0-87 40-87 99 0 60 29 101 89 101 43 0 62-24 78-52l27 14C228-24 195 4 139 4 59 4 22-46 18-125c-6-104 99-153 187-111 19 9 31 26 39 46" id="bh"/><path fill="#3a414a" d="M141-36C126-15 110 5 73 4 37 3 15-17 15-53c-1-64 63-63 125-63 3-35-9-54-41-54-24 1-41 7-42 31l-33-3c5-37 33-52 76-52 45 0 72 20 72 64v82c-1 20 7 32 28 27v20c-31 9-61-2-59-35zM48-53c0 20 12 33 32 33 41-3 63-29 60-74-43 2-92-5-92 41" id="bi"/><path fill="#3a414a" d="M59-47c-2 24 18 29 38 22v24C64 9 27 4 27-40v-127H5v-23h24l9-43h21v43h35v23H59v120" id="bj"/><path fill="#3a414a" d="M100-194c63 0 86 42 84 106H49c0 40 14 67 53 68 26 1 43-12 49-29l28 8c-11 28-37 45-77 45C44 4 14-33 15-96c1-61 26-98 85-98zm52 81c6-60-76-77-97-28-3 7-6 17-6 28h103" id="bk"/><path fill="#3a414a" d="M177-190C167-65 218 103 67 71c-23-6-38-20-44-43l32-5c15 47 100 32 89-28v-30C133-14 115 1 83 1 29 1 15-40 15-95c0-56 16-97 71-98 29-1 48 16 59 35 1-10 0-23 2-32h30zM94-22c36 0 50-32 50-73 0-42-14-75-50-75-39 0-46 34-46 75s6 73 46 73" id="bl"/><path fill="#3a414a" d="M100-194c62-1 85 37 85 99 1 63-27 99-86 99S16-35 15-95c0-66 28-99 85-99zM99-20c44 1 53-31 53-75 0-43-8-75-51-75s-53 32-53 75 10 74 51 75" id="bm"/><path fill="#3a414a" d="M114-163C36-179 61-72 57 0H25l-1-190h30c1 12-1 29 2 39 6-27 23-49 58-41v29" id="bn"/><path fill="#3a414a" d="M179-190L93 31C79 59 56 82 12 73V49c39 6 53-20 64-50L1-190h34L92-34l54-156h33" id="bo"/><g id="y"><use transform="matrix(0.05,0,0,0.05,0,0)" xlink:href="#bh"/><use transform="matrix(0.05,0,0,0.05,12.950000000000001,0)" xlink:href="#bi"/><use transform="matrix(0.05,0,0,0.05,22.950000000000003,0)" xlink:href="#bj"/><use transform="matrix(0.05,0,0,0.05,27.950000000000003,0)" xlink:href="#bk"/><use transform="matrix(0.05,0,0,0.05,37.95,0)" xlink:href="#bl"/><use transform="matrix(0.05,0,0,0.05,47.95,0)" xlink:href="#bm"/><use transform="matrix(0.05,0,0,0.05,57.95,0)" xlink:href="#bn"/><use transform="matrix(0.05,0,0,0.05,63.900000000000006,0)" xlink:href="#bo"/></g><path fill="#3a414a" d="M24-231v-30h32v30H24zM24 0v-190h32V0H24" id="bp"/><path fill="#3a414a" d="M85-194c31 0 48 13 60 33l-1-100h32l1 261h-30c-2-10 0-23-3-31C134-8 116 4 85 4 32 4 16-35 15-94c0-66 23-100 70-100zm9 24c-40 0-46 34-46 75 0 40 6 74 45 74 42 0 51-32 51-76 0-42-9-74-50-73" id="bq"/><g id="z"><use transform="matrix(0.05,0,0,0.05,0,0)" xlink:href="#bp"/><use transform="matrix(0.05,0,0,0.05,3.95,0)" xlink:href="#bq"/></g><path fill="#3a414a" d="M135-143c-3-34-86-38-87 0 15 53 115 12 119 90S17 21 10-45l28-5c4 36 97 45 98 0-10-56-113-15-118-90-4-57 82-63 122-42 12 7 21 19 24 35" id="br"/><path fill="#3a414a" d="M117-194c89-4 53 116 60 194h-32v-121c0-31-8-49-39-48C34-167 62-67 57 0H25l-1-190h30c1 10-1 24 2 32 11-22 29-35 61-36" id="bs"/><g id="A"><use transform="matrix(0.05,0,0,0.05,0,0)" xlink:href="#br"/><use transform="matrix(0.05,0,0,0.05,9,0)" xlink:href="#bj"/><use transform="matrix(0.05,0,0,0.05,14,0)" xlink:href="#bn"/><use transform="matrix(0.05,0,0,0.05,19.95,0)" xlink:href="#bp"/><use transform="matrix(0.05,0,0,0.05,23.9,0)" xlink:href="#bs"/><use transform="matrix(0.05,0,0,0.05,33.9,0)" xlink:href="#bl"/></g><path fill="#3a414a" d="M210-169c-67 3-38 105-44 169h-31v-121c0-29-5-50-35-48C34-165 62-65 56 0H25l-1-190h30c1 10-1 24 2 32 10-44 99-50 107 0 11-21 27-35 58-36 85-2 47 119 55 194h-31v-121c0-29-5-49-35-48" id="bt"/><g id="B"><use transform="matrix(0.05,0,0,0.05,0,0)" xlink:href="#bs"/><use transform="matrix(0.05,0,0,0.05,10,0)" xlink:href="#bi"/><use transform="matrix(0.05,0,0,0.05,20,0)" xlink:href="#bt"/><use transform="matrix(0.05,0,0,0.05,34.95,0)" xlink:href="#bk"/></g><path fill="#3a414a" d="M96-169c-40 0-48 33-48 73s9 75 48 75c24 0 41-14 43-38l32 2c-6 37-31 61-74 61-59 0-76-41-82-99-10-93 101-131 147-64 4 7 5 14 7 22l-32 3c-4-21-16-35-41-35" id="bu"/><path fill="#3a414a" d="M115-194c55 1 70 41 70 98S169 2 115 4C84 4 66-9 55-30l1 105H24l-1-265h31l2 30c10-21 28-34 59-34zm-8 174c40 0 45-34 45-75s-6-73-45-74c-42 0-51 32-51 76 0 43 10 73 51 73" id="bv"/><g id="C"><use transform="matrix(0.05,0,0,0.05,0,0)" xlink:href="#bq"/><use transform="matrix(0.05,0,0,0.05,10,0)" xlink:href="#bk"/><use transform="matrix(0.05,0,0,0.05,20,0)" xlink:href="#br"/><use transform="matrix(0.05,0,0,0.05,29,0)" xlink:href="#bu"/><use transform="matrix(0.05,0,0,0.05,38,0)" xlink:href="#bn"/><use transform="matrix(0.05,0,0,0.05,43.95,0)" xlink:href="#bp"/><use transform="matrix(0.05,0,0,0.05,47.900000000000006,0)" xlink:href="#bv"/><use transform="matrix(0.05,0,0,0.05,57.900000000000006,0)" xlink:href="#bj"/><use transform="matrix(0.05,0,0,0.05,62.900000000000006,0)" xlink:href="#bp"/><use transform="matrix(0.05,0,0,0.05,66.85000000000001,0)" xlink:href="#bm"/><use transform="matrix(0.05,0,0,0.05,76.85000000000001,0)" xlink:href="#bs"/></g><path fill="#3a414a" d="M-5 72V49h209v23H-5" id="bw"/><g id="D"><use transform="matrix(0.05,0,0,0.05,0,0)" xlink:href="#bu"/><use transform="matrix(0.05,0,0,0.05,9,0)" xlink:href="#bn"/><use transform="matrix(0.05,0,0,0.05,14.949999999999998,0)" xlink:href="#bk"/><use transform="matrix(0.05,0,0,0.05,24.95,0)" xlink:href="#bi"/><use transform="matrix(0.05,0,0,0.05,34.95,0)" xlink:href="#bj"/><use transform="matrix(0.05,0,0,0.05,39.95,0)" xlink:href="#bk"/><use transform="matrix(0.05,0,0,0.05,49.95,0)" xlink:href="#bq"/><use transform="matrix(0.05,0,0,0.05,59.95,0)" xlink:href="#bw"/><use transform="matrix(0.05,0,0,0.05,69.95,0)" xlink:href="#bi"/><use transform="matrix(0.05,0,0,0.05,79.95,0)" xlink:href="#bj"/></g><path fill="#3a414a" d="M30-248c118-7 216 8 213 122C240-48 200 0 122 0H30v-248zM63-27c89 8 146-16 146-99s-60-101-146-95v194" id="bx"/><g id="E"><use transform="matrix(0.05,0,0,0.05,0,0)" xlink:href="#bx"/><use transform="matrix(0.05,0,0,0.05,12.950000000000001,0)" xlink:href="#bi"/><use transform="matrix(0.05,0,0,0.05,22.950000000000003,0)" xlink:href="#bj"/><use transform="matrix(0.05,0,0,0.05,27.950000000000003,0)" xlink:href="#bk"/></g><path fill="#3a414a" d="M84 4C-5 8 30-112 23-190h32v120c0 31 7 50 39 49 72-2 45-101 50-169h31l1 190h-30c-1-10 1-25-2-33-11 22-28 36-60 37" id="by"/><g id="F"><use transform="matrix(0.05,0,0,0.05,0,0)" xlink:href="#by"/><use transform="matrix(0.05,0,0,0.05,10,0)" xlink:href="#bv"/><use transform="matrix(0.05,0,0,0.05,20,0)" xlink:href="#bq"/><use transform="matrix(0.05,0,0,0.05,30,0)" xlink:href="#bi"/><use transform="matrix(0.05,0,0,0.05,40,0)" xlink:href="#bj"/><use transform="matrix(0.05,0,0,0.05,45,0)" xlink:href="#bk"/><use transform="matrix(0.05,0,0,0.05,55,0)" xlink:href="#bq"/><use transform="matrix(0.05,0,0,0.05,65,0)" xlink:href="#bw"/><use transform="matrix(0.05,0,0,0.05,75,0)" xlink:href="#bi"/><use transform="matrix(0.05,0,0,0.05,85,0)" xlink:href="#bj"/></g><filter id="x" filterUnits="objectBoundingBox" x="-.05" y="-.02" width="1.1" height="1.1"><feOffset result="offOut" in="SourceAlpha" dy="6"/><feGaussianBlur result="blurOut" in="offOut" stdDeviation="5"/><feColorMatrix result="colorOut" in="blurOut" values="0 0 0 0 0 0 0 0 0 0 0 0 0 0 0 0 0 0 0.5019607843137255 0"/><feBlend in="SourceGraphic" in2="colorOut"/></filter><path fill="#3a414a" d="M185-189c-5-48-123-54-124 2 14 75 158 14 163 119 3 78-121 87-175 55-17-10-28-26-33-46l33-7c5 56 141 63 141-1 0-78-155-14-162-118-5-82 145-84 179-34 5 7 8 16 11 25" id="bz"/><path fill="#3a414a" d="M24 0v-261h32V0H24" id="bA"/><path fill="#3a414a" d="M206 0h-36l-40-164L89 0H53L-1-190h32L70-26l43-164h34l41 164 42-164h31" id="bB"/><path fill="#3a414a" d="M143 0L79-87 56-68V0H24v-261h32v163l83-92h37l-77 82L181 0h-38" id="bC"/><g id="H"><use transform="matrix(0.05,0,0,0.05,0,0)" xlink:href="#bz"/><use transform="matrix(0.05,0,0,0.05,12,0)" xlink:href="#bm"/><use transform="matrix(0.05,0,0,0.05,22,0)" xlink:href="#bu"/><use transform="matrix(0.05,0,0,0.05,31,0)" xlink:href="#bp"/><use transform="matrix(0.05,0,0,0.05,34.95,0)" xlink:href="#bi"/><use transform="matrix(0.05,0,0,0.05,44.95,0)" xlink:href="#bA"/><use transform="matrix(0.05,0,0,0.05,48.900000000000006,0)" xlink:href="#bw"/><use transform="matrix(0.05,0,0,0.05,58.900000000000006,0)" xlink:href="#bs"/><use transform="matrix(0.05,0,0,0.05,68.9,0)" xlink:href="#bk"/><use transform="matrix(0.05,0,0,0.05,78.9,0)" xlink:href="#bj"/><use transform="matrix(0.05,0,0,0.05,83.9,0)" xlink:href="#bB"/><use transform="matrix(0.05,0,0,0.05,96.85000000000001,0)" xlink:href="#bm"/><use transform="matrix(0.05,0,0,0.05,106.85000000000001,0)" xlink:href="#bn"/><use transform="matrix(0.05,0,0,0.05,112.80000000000001,0)" xlink:href="#bC"/></g><filter id="G" filterUnits="objectBoundingBox" x="-.06" y="-.02" width="1.11" height="1.1"><feOffset result="offOut" in="SourceAlpha" dy="6"/><feGaussianBlur result="blurOut" in="offOut" stdDeviation="5"/><feColorMatrix result="colorOut" in="blurOut" values="0 0 0 0 0 0 0 0 0 0 0 0 0 0 0 0 0 0 0.5019607843137255 0"/><feBlend in="SourceGraphic" in2="colorOut"/></filter><path fill="#3a414a" d="M30-248c87 1 191-15 191 75 0 78-77 80-158 76V0H30v-248zm33 125c57 0 124 11 124-50 0-59-68-47-124-48v98" id="bD"/><g id="J"><use transform="matrix(0.05,0,0,0.05,0,0)" xlink:href="#bD"/><use transform="matrix(0.05,0,0,0.05,12,0)" xlink:href="#bn"/><use transform="matrix(0.05,0,0,0.05,17.95,0)" xlink:href="#bm"/><use transform="matrix(0.05,0,0,0.05,27.950000000000003,0)" xlink:href="#bq"/><use transform="matrix(0.05,0,0,0.05,37.95,0)" xlink:href="#by"/><use transform="matrix(0.05,0,0,0.05,47.95,0)" xlink:href="#bu"/><use transform="matrix(0.05,0,0,0.05,56.95,0)" xlink:href="#bj"/></g><g id="K"><use transform="matrix(0.05,0,0,0.05,0,0)" xlink:href="#bv"/><use transform="matrix(0.05,0,0,0.05,10,0)" xlink:href="#bn"/><use transform="matrix(0.05,0,0,0.05,15.949999999999998,0)" xlink:href="#bp"/><use transform="matrix(0.05,0,0,0.05,19.9,0)" xlink:href="#bu"/><use transform="matrix(0.05,0,0,0.05,28.899999999999995,0)" xlink:href="#bk"/></g><path fill="#3a414a" d="M101-234c-31-9-42 10-38 44h38v23H63V0H32v-167H5v-23h27c-7-52 17-82 69-68v24" id="bE"/><g id="L"><use transform="matrix(0.05,0,0,0.05,0,0)" xlink:href="#bE"/><use transform="matrix(0.05,0,0,0.05,5,0)" xlink:href="#bA"/><use transform="matrix(0.05,0,0,0.05,8.95,0)" xlink:href="#bm"/><use transform="matrix(0.05,0,0,0.05,18.95,0)" xlink:href="#bi"/><use transform="matrix(0.05,0,0,0.05,28.950000000000003,0)" xlink:href="#bj"/></g><g id="M"><use transform="matrix(0.05,0,0,0.05,0,0)" xlink:href="#bm"/><use transform="matrix(0.05,0,0,0.05,10,0)" xlink:href="#bA"/><use transform="matrix(0.05,0,0,0.05,13.949999999999998,0)" xlink:href="#bq"/><use transform="matrix(0.05,0,0,0.05,23.95,0)" xlink:href="#bw"/><use transform="matrix(0.05,0,0,0.05,33.95,0)" xlink:href="#bv"/><use transform="matrix(0.05,0,0,0.05,43.95,0)" xlink:href="#bn"/><use transform="matrix(0.05,0,0,0.05,49.900000000000006,0)" xlink:href="#bp"/><use transform="matrix(0.05,0,0,0.05,53.85,0)" xlink:href="#bu"/><use transform="matrix(0.05,0,0,0.05,62.85,0)" xlink:href="#bk"/></g><g id="N"><use transform="matrix(0.05,0,0,0.05,0,0)" xlink:href="#br"/><use transform="matrix(0.05,0,0,0.05,9,0)" xlink:href="#bj"/><use transform="matrix(0.05,0,0,0.05,14,0)" xlink:href="#bi"/><use transform="matrix(0.05,0,0,0.05,24,0)" xlink:href="#bj"/><use transform="matrix(0.05,0,0,0.05,29,0)" xlink:href="#by"/><use transform="matrix(0.05,0,0,0.05,39,0)" xlink:href="#br"/></g><path fill="#3a414a" d="M115-194c53 0 69 39 70 98 0 66-23 100-70 100C84 3 66-7 56-30L54 0H23l1-261h32v101c10-23 28-34 59-34zm-8 174c40 0 45-34 45-75 0-40-5-75-45-74-42 0-51 32-51 76 0 43 10 73 51 73" id="bF"/><g id="O"><use transform="matrix(0.05,0,0,0.05,0,0)" xlink:href="#bF"/><use transform="matrix(0.05,0,0,0.05,10,0)" xlink:href="#bm"/><use transform="matrix(0.05,0,0,0.05,20,0)" xlink:href="#bm"/><use transform="matrix(0.05,0,0,0.05,30,0)" xlink:href="#bA"/><use transform="matrix(0.05,0,0,0.05,33.95,0)" xlink:href="#bk"/><use transform="matrix(0.05,0,0,0.05,43.95,0)" xlink:href="#bi"/><use transform="matrix(0.05,0,0,0.05,53.95,0)" xlink:href="#bs"/></g><g id="P"><use transform="matrix(0.05,0,0,0.05,0,0)" xlink:href="#bp"/><use transform="matrix(0.05,0,0,0.05,3.95,0)" xlink:href="#bt"/><use transform="matrix(0.05,0,0,0.05,18.900000000000002,0)" xlink:href="#bi"/><use transform="matrix(0.05,0,0,0.05,28.900000000000002,0)" xlink:href="#bl"/><use transform="matrix(0.05,0,0,0.05,38.900000000000006,0)" xlink:href="#bk"/></g><g id="Q"><use transform="matrix(0.05,0,0,0.05,0,0)" xlink:href="#bq"/><use transform="matrix(0.05,0,0,0.05,10,0)" xlink:href="#bk"/><use transform="matrix(0.05,0,0,0.05,20,0)" xlink:href="#bA"/><use transform="matrix(0.05,0,0,0.05,23.95,0)" xlink:href="#bk"/><use transform="matrix(0.05,0,0,0.05,33.95,0)" xlink:href="#bj"/><use transform="matrix(0.05,0,0,0.05,38.95,0)" xlink:href="#bk"/><use transform="matrix(0.05,0,0,0.05,48.95,0)" xlink:href="#bq"/><use transform="matrix(0.05,0,0,0.05,58.95,0)" xlink:href="#bw"/><use transform="matrix(0.05,0,0,0.05,68.95,0)" xlink:href="#bi"/><use transform="matrix(0.05,0,0,0.05,78.95,0)" xlink:href="#bj"/></g><g id="R"><use transform="matrix(0.05,0,0,0.05,0,0)" xlink:href="#bq"/><use transform="matrix(0.05,0,0,0.05,10,0)" xlink:href="#bk"/><use transform="matrix(0.05,0,0,0.05,20,0)" xlink:href="#bA"/><use transform="matrix(0.05,0,0,0.05,23.95,0)" xlink:href="#bk"/><use transform="matrix(0.05,0,0,0.05,33.95,0)" xlink:href="#bj"/><use transform="matrix(0.05,0,0,0.05,38.95,0)" xlink:href="#bk"/><use transform="matrix(0.05,0,0,0.05,48.95,0)" xlink:href="#bj"/><use transform="matrix(0.05,0,0,0.05,53.95,0)" xlink:href="#bw"/><use transform="matrix(0.05,0,0,0.05,63.95,0)" xlink:href="#bF"/><use transform="matrix(0.05,0,0,0.05,73.95,0)" xlink:href="#bo"/></g><filter id="I" filterUnits="objectBoundingBox" x="-.05" y="-.01" width="1.1" height="1.05"><feOffset result="offOut" in="SourceAlpha" dy="6"/><feGaussianBlur result="blurOut" in="offOut" stdDeviation="5"/><feColorMatrix result="colorOut" in="blurOut" values="0 0 0 0 0 0 0 0 0 0 0 0 0 0 0 0 0 0 0.5019607843137255 0"/><feBlend in="SourceGraphic" in2="colorOut"/></filter><path fill="#3a414a" d="M30 0v-248h187v28H63v79h144v27H63v87h162V0H30" id="bG"/><g id="T"><use transform="matrix(0.05,0,0,0.05,0,0)" xlink:href="#bG"/><use transform="matrix(0.05,0,0,0.05,12,0)" xlink:href="#bt"/><use transform="matrix(0.05,0,0,0.05,26.950000000000003,0)" xlink:href="#bv"/><use transform="matrix(0.05,0,0,0.05,36.95,0)" xlink:href="#bA"/><use transform="matrix(0.05,0,0,0.05,40.900000000000006,0)" xlink:href="#bm"/><use transform="matrix(0.05,0,0,0.05,50.900000000000006,0)" xlink:href="#bo"/><use transform="matrix(0.05,0,0,0.05,59.900000000000006,0)" xlink:href="#bk"/><use transform="matrix(0.05,0,0,0.05,69.9,0)" xlink:href="#bk"/></g><g id="U"><use transform="matrix(0.05,0,0,0.05,0,0)" xlink:href="#by"/><use transform="matrix(0.05,0,0,0.05,10,0)" xlink:href="#br"/><use transform="matrix(0.05,0,0,0.05,19,0)" xlink:href="#bk"/><use transform="matrix(0.05,0,0,0.05,29,0)" xlink:href="#bn"/><use transform="matrix(0.05,0,0,0.05,34.95,0)" xlink:href="#bs"/><use transform="matrix(0.05,0,0,0.05,44.95,0)" xlink:href="#bi"/><use transform="matrix(0.05,0,0,0.05,54.95,0)" xlink:href="#bt"/><use transform="matrix(0.05,0,0,0.05,69.9,0)" xlink:href="#bk"/></g><g id="V"><use transform="matrix(0.05,0,0,0.05,0,0)" xlink:href="#bk"/><use transform="matrix(0.05,0,0,0.05,10,0)" xlink:href="#bt"/><use transform="matrix(0.05,0,0,0.05,24.950000000000003,0)" xlink:href="#bi"/><use transform="matrix(0.05,0,0,0.05,34.95,0)" xlink:href="#bp"/><use transform="matrix(0.05,0,0,0.05,38.900000000000006,0)" xlink:href="#bA"/></g><g id="W"><use transform="matrix(0.05,0,0,0.05,0,0)" xlink:href="#bv"/><use transform="matrix(0.05,0,0,0.05,10,0)" xlink:href="#bi"/><use transform="matrix(0.05,0,0,0.05,20,0)" xlink:href="#br"/><use transform="matrix(0.05,0,0,0.05,29,0)" xlink:href="#br"/><use transform="matrix(0.05,0,0,0.05,38,0)" xlink:href="#bB"/><use transform="matrix(0.05,0,0,0.05,50.95,0)" xlink:href="#bm"/><use transform="matrix(0.05,0,0,0.05,60.95,0)" xlink:href="#bn"/><use transform="matrix(0.05,0,0,0.05,66.9,0)" xlink:href="#bq"/></g><g id="X"><use transform="matrix(0.05,0,0,0.05,0,0)" xlink:href="#bi"/><use transform="matrix(0.05,0,0,0.05,10,0)" xlink:href="#bq"/><use transform="matrix(0.05,0,0,0.05,20,0)" xlink:href="#bq"/><use transform="matrix(0.05,0,0,0.05,30,0)" xlink:href="#bn"/><use transform="matrix(0.05,0,0,0.05,35.95,0)" xlink:href="#bk"/><use transform="matrix(0.05,0,0,0.05,45.95,0)" xlink:href="#br"/><use transform="matrix(0.05,0,0,0.05,54.95,0)" xlink:href="#br"/></g><path fill="#3a414a" d="M106-169C34-169 62-67 57 0H25v-261h32l-1 103c12-21 28-36 61-36 89 0 53 116 60 194h-32v-121c2-32-8-49-39-48" id="bH"/><g id="Y"><use transform="matrix(0.05,0,0,0.05,0,0)" xlink:href="#bv"/><use transform="matrix(0.05,0,0,0.05,10,0)" xlink:href="#bH"/><use transform="matrix(0.05,0,0,0.05,20,0)" xlink:href="#bm"/><use transform="matrix(0.05,0,0,0.05,30,0)" xlink:href="#bs"/><use transform="matrix(0.05,0,0,0.05,40,0)" xlink:href="#bk"/></g><g id="Z"><use transform="matrix(0.05,0,0,0.05,0,0)" xlink:href="#bF"/><use transform="matrix(0.05,0,0,0.05,10,0)" xlink:href="#bp"/><use transform="matrix(0.05,0,0,0.05,13.949999999999998,0)" xlink:href="#bn"/><use transform="matrix(0.05,0,0,0.05,19.9,0)" xlink:href="#bj"/><use transform="matrix(0.05,0,0,0.05,24.9,0)" xlink:href="#bH"/><use transform="matrix(0.05,0,0,0.05,34.9,0)" xlink:href="#bq"/><use transform="matrix(0.05,0,0,0.05,44.9,0)" xlink:href="#bi"/><use transform="matrix(0.05,0,0,0.05,54.900000000000006,0)" xlink:href="#bj"/><use transform="matrix(0.05,0,0,0.05,59.900000000000006,0)" xlink:href="#bk"/></g><g id="aa"><use transform="matrix(0.05,0,0,0.05,0,0)" xlink:href="#bl"/><use transform="matrix(0.05,0,0,0.05,10,0)" xlink:href="#bk"/><use transform="matrix(0.05,0,0,0.05,20,0)" xlink:href="#bs"/><use transform="matrix(0.05,0,0,0.05,30,0)" xlink:href="#bq"/><use transform="matrix(0.05,0,0,0.05,40,0)" xlink:href="#bk"/><use transform="matrix(0.05,0,0,0.05,50,0)" xlink:href="#bn"/></g><path fill="#3a414a" d="M108 0H70L1-190h34L89-25l56-165h34" id="bI"/><g id="ab"><use transform="matrix(0.05,0,0,0.05,0,0)" xlink:href="#bi"/><use transform="matrix(0.05,0,0,0.05,10,0)" xlink:href="#bI"/><use transform="matrix(0.05,0,0,0.05,19,0)" xlink:href="#bi"/><use transform="matrix(0.05,0,0,0.05,29,0)" xlink:href="#bj"/><use transform="matrix(0.05,0,0,0.05,34,0)" xlink:href="#bi"/><use transform="matrix(0.05,0,0,0.05,44,0)" xlink:href="#bn"/></g><g id="ac"><use transform="matrix(0.05,0,0,0.05,0,0)" xlink:href="#by"/><use transform="matrix(0.05,0,0,0.05,10,0)" xlink:href="#bv"/><use transform="matrix(0.05,0,0,0.05,20,0)" xlink:href="#bq"/><use transform="matrix(0.05,0,0,0.05,30,0)" xlink:href="#bi"/><use transform="matrix(0.05,0,0,0.05,40,0)" xlink:href="#bj"/><use transform="matrix(0.05,0,0,0.05,45,0)" xlink:href="#bk"/><use transform="matrix(0.05,0,0,0.05,55,0)" xlink:href="#bw"/><use transform="matrix(0.05,0,0,0.05,65,0)" xlink:href="#bi"/><use transform="matrix(0.05,0,0,0.05,75,0)" xlink:href="#bj"/></g><filter id="S" filterUnits="objectBoundingBox" x="-.05" y="-.01" width="1.09" height="1.04"><feOffset result="offOut" in="SourceAlpha" dy="6"/><feGaussianBlur result="blurOut" in="offOut" stdDeviation="5"/><feColorMatrix result="colorOut" in="blurOut" values="0 0 0 0 0 0 0 0 0 0 0 0 0 0 0 0 0 0 0.5019607843137255 0"/><feBlend in="SourceGraphic" in2="colorOut"/></filter><g id="ae"><use transform="matrix(0.05617283950617281,0,0,0.05617283950617281,0,0)" xlink:href="#bD"/><use transform="matrix(0.05617283950617281,0,0,0.05617283950617281,13.481481481481474,0)" xlink:href="#bk"/><use transform="matrix(0.05617283950617281,0,0,0.05617283950617281,24.716049382716037,0)" xlink:href="#bn"/><use transform="matrix(0.05617283950617281,0,0,0.05617283950617281,31.4006172839506,0)" xlink:href="#bt"/><use transform="matrix(0.05617283950617281,0,0,0.05617283950617281,48.19629629629627,0)" xlink:href="#bp"/><use transform="matrix(0.05617283950617281,0,0,0.05617283950617281,52.63395061728392,0)" xlink:href="#br"/><use transform="matrix(0.05617283950617281,0,0,0.05617283950617281,62.74506172839502,0)" xlink:href="#br"/><use transform="matrix(0.05617283950617281,0,0,0.05617283950617281,72.85617283950613,0)" xlink:href="#bp"/><use transform="matrix(0.05617283950617281,0,0,0.05617283950617281,77.29382716049378,0)" xlink:href="#bm"/><use transform="matrix(0.05617283950617281,0,0,0.05617283950617281,88.52839506172833,0)" xlink:href="#bs"/></g><g id="af"><use transform="matrix(0.05617283950617281,0,0,0.05617283950617281,0,0)" xlink:href="#bp"/><use transform="matrix(0.05617283950617281,0,0,0.05617283950617281,4.437654320987652,0)" xlink:href="#bq"/></g><g id="ag"><use transform="matrix(0.05617283950617281,0,0,0.05617283950617281,0,0)" xlink:href="#br"/><use transform="matrix(0.05617283950617281,0,0,0.05617283950617281,10.111111111111105,0)" xlink:href="#bj"/><use transform="matrix(0.05617283950617281,0,0,0.05617283950617281,15.728395061728387,0)" xlink:href="#bn"/><use transform="matrix(0.05617283950617281,0,0,0.05617283950617281,22.41296296296295,0)" xlink:href="#bp"/><use transform="matrix(0.05617283950617281,0,0,0.05617283950617281,26.8506172839506,0)" xlink:href="#bs"/><use transform="matrix(0.05617283950617281,0,0,0.05617283950617281,38.08518518518516,0)" xlink:href="#bl"/></g><g id="ah"><use transform="matrix(0.05617283950617281,0,0,0.05617283950617281,0,0)" xlink:href="#bs"/><use transform="matrix(0.05617283950617281,0,0,0.05617283950617281,11.234567901234561,0)" xlink:href="#bi"/><use transform="matrix(0.05617283950617281,0,0,0.05617283950617281,22.469135802469122,0)" xlink:href="#bt"/><use transform="matrix(0.05617283950617281,0,0,0.05617283950617281,39.26481481481479,0)" xlink:href="#bk"/></g><g id="ai"><use transform="matrix(0.05617283950617281,0,0,0.05617283950617281,0,0)" xlink:href="#bq"/><use transform="matrix(0.05617283950617281,0,0,0.05617283950617281,11.234567901234561,0)" xlink:href="#bk"/><use transform="matrix(0.05617283950617281,0,0,0.05617283950617281,22.469135802469122,0)" xlink:href="#br"/><use transform="matrix(0.05617283950617281,0,0,0.05617283950617281,32.580246913580226,0)" xlink:href="#bu"/><use transform="matrix(0.05617283950617281,0,0,0.05617283950617281,42.69135802469133,0)" xlink:href="#bn"/><use transform="matrix(0.05617283950617281,0,0,0.05617283950617281,49.3759259259259,0)" xlink:href="#bp"/><use transform="matrix(0.05617283950617281,0,0,0.05617283950617281,53.81358024691355,0)" xlink:href="#bv"/><use transform="matrix(0.05617283950617281,0,0,0.05617283950617281,65.04814814814812,0)" xlink:href="#bj"/><use transform="matrix(0.05617283950617281,0,0,0.05617283950617281,70.6654320987654,0)" xlink:href="#bp"/><use transform="matrix(0.05617283950617281,0,0,0.05617283950617281,75.10308641975304,0)" xlink:href="#bm"/><use transform="matrix(0.05617283950617281,0,0,0.05617283950617281,86.3376543209876,0)" xlink:href="#bs"/></g><g id="aj"><use transform="matrix(0.05617283950617281,0,0,0.05617283950617281,0,0)" xlink:href="#bu"/><use transform="matrix(0.05617283950617281,0,0,0.05617283950617281,10.111111111111105,0)" xlink:href="#bn"/><use transform="matrix(0.05617283950617281,0,0,0.05617283950617281,16.79567901234567,0)" xlink:href="#bk"/><use transform="matrix(0.05617283950617281,0,0,0.05617283950617281,28.03024691358023,0)" xlink:href="#bi"/><use transform="matrix(0.05617283950617281,0,0,0.05617283950617281,39.26481481481479,0)" xlink:href="#bj"/><use transform="matrix(0.05617283950617281,0,0,0.05617283950617281,44.88209876543207,0)" xlink:href="#bk"/><use transform="matrix(0.05617283950617281,0,0,0.05617283950617281,56.11666666666663,0)" xlink:href="#bq"/><use transform="matrix(0.05617283950617281,0,0,0.05617283950617281,67.35123456790119,0)" xlink:href="#bw"/><use transform="matrix(0.05617283950617281,0,0,0.05617283950617281,78.58580246913574,0)" xlink:href="#bi"/><use transform="matrix(0.05617283950617281,0,0,0.05617283950617281,89.8203703703703,0)" xlink:href="#bj"/></g><g id="ak"><use transform="matrix(0.05617283950617281,0,0,0.05617283950617281,0,0)" xlink:href="#bx"/><use transform="matrix(0.05617283950617281,0,0,0.05617283950617281,14.548765432098756,0)" xlink:href="#bi"/><use transform="matrix(0.05617283950617281,0,0,0.05617283950617281,25.783333333333317,0)" xlink:href="#bj"/><use transform="matrix(0.05617283950617281,0,0,0.05617283950617281,31.4006172839506,0)" xlink:href="#bk"/></g><g id="al"><use transform="matrix(0.05617283950617281,0,0,0.05617283950617281,0,0)" xlink:href="#by"/><use transform="matrix(0.05617283950617281,0,0,0.05617283950617281,11.234567901234561,0)" xlink:href="#bv"/><use transform="matrix(0.05617283950617281,0,0,0.05617283950617281,22.469135802469122,0)" xlink:href="#bq"/><use transform="matrix(0.05617283950617281,0,0,0.05617283950617281,33.70370370370368,0)" xlink:href="#bi"/><use transform="matrix(0.05617283950617281,0,0,0.05617283950617281,44.938271604938244,0)" xlink:href="#bj"/><use transform="matrix(0.05617283950617281,0,0,0.05617283950617281,50.55555555555552,0)" xlink:href="#bk"/><use transform="matrix(0.05617283950617281,0,0,0.05617283950617281,61.79012345679009,0)" xlink:href="#bq"/><use transform="matrix(0.05617283950617281,0,0,0.05617283950617281,73.02469135802464,0)" xlink:href="#bw"/><use transform="matrix(0.05617283950617281,0,0,0.05617283950617281,84.2592592592592,0)" xlink:href="#bi"/><use transform="matrix(0.05617283950617281,0,0,0.05617283950617281,95.49382716049375,0)" xlink:href="#bj"/></g><g id="am"><use transform="matrix(0.05617283950617281,0,0,0.05617283950617281,0,0)" xlink:href="#bq"/><use transform="matrix(0.05617283950617281,0,0,0.05617283950617281,11.234567901234561,0)" xlink:href="#bk"/><use transform="matrix(0.05617283950617281,0,0,0.05617283950617281,22.469135802469122,0)" xlink:href="#bA"/><use transform="matrix(0.05617283950617281,0,0,0.05617283950617281,26.906790123456773,0)" xlink:href="#bk"/><use transform="matrix(0.05617283950617281,0,0,0.05617283950617281,38.141358024691336,0)" xlink:href="#bj"/><use transform="matrix(0.05617283950617281,0,0,0.05617283950617281,43.75864197530861,0)" xlink:href="#bk"/><use transform="matrix(0.05617283950617281,0,0,0.05617283950617281,54.993209876543176,0)" xlink:href="#bq"/><use transform="matrix(0.05617283950617281,0,0,0.05617283950617281,66.22777777777773,0)" xlink:href="#bw"/><use transform="matrix(0.05617283950617281,0,0,0.05617283950617281,77.46234567901229,0)" xlink:href="#bi"/><use transform="matrix(0.05617283950617281,0,0,0.05617283950617281,88.69691358024684,0)" xlink:href="#bj"/></g><filter id="ad" filterUnits="objectBoundingBox" x="-.05" y="-.02" width="1.09" height="1.08"><feOffset result="offOut" in="SourceAlpha" dy="6"/><feGaussianBlur result="blurOut" in="offOut" stdDeviation="5"/><feColorMatrix result="colorOut" in="blurOut" values="0 0 0 0 0 0 0 0 0 0 0 0 0 0 0 0 0 0 0.5019607843137255 0"/><feBlend in="SourceGraphic" in2="colorOut"/></filter><path fill="#3a414a" d="M232-93c-1 65-40 97-104 97C67 4 28-28 28-90v-158h33c8 89-33 224 67 224 102 0 64-133 71-224h33v155" id="bJ"/><g id="ao"><use transform="matrix(0.05,0,0,0.05,0,0)" xlink:href="#bJ"/><use transform="matrix(0.05,0,0,0.05,12.950000000000001,0)" xlink:href="#br"/><use transform="matrix(0.05,0,0,0.05,21.950000000000003,0)" xlink:href="#bk"/><use transform="matrix(0.05,0,0,0.05,31.950000000000003,0)" xlink:href="#bn"/></g><g id="ap"><use transform="matrix(0.05,0,0,0.05,0,0)" xlink:href="#bq"/><use transform="matrix(0.05,0,0,0.05,10,0)" xlink:href="#bk"/><use transform="matrix(0.05,0,0,0.05,20,0)" xlink:href="#bA"/><use transform="matrix(0.05,0,0,0.05,23.95,0)" xlink:href="#bk"/><use transform="matrix(0.05,0,0,0.05,33.95,0)" xlink:href="#bj"/><use transform="matrix(0.05,0,0,0.05,38.95,0)" xlink:href="#bk"/><use transform="matrix(0.05,0,0,0.05,48.95,0)" xlink:href="#bq"/></g><filter id="an" filterUnits="objectBoundingBox" x="-.05" y="-.01" width="1.1" height="1.04"><feOffset result="offOut" in="SourceAlpha" dy="6"/><feGaussianBlur result="blurOut" in="offOut" stdDeviation="5"/><feColorMatrix result="colorOut" in="blurOut" values="0 0 0 0 0 0 0 0 0 0 0 0 0 0 0 0 0 0 0.5019607843137255 0"/><feBlend in="SourceGraphic" in2="colorOut"/></filter><path fill="#3a414a" d="M160-131c35 5 61 23 61 61C221 17 115-2 30 0v-248c76 3 177-17 177 60 0 33-19 50-47 57zm-97-11c50-1 110 9 110-42 0-47-63-36-110-37v79zm0 115c55-2 124 14 124-45 0-56-70-42-124-44v89" id="bK"/><g id="aq"><use transform="matrix(0.05,0,0,0.05,0,0)" xlink:href="#bK"/><use transform="matrix(0.05,0,0,0.05,12,0)" xlink:href="#by"/><use transform="matrix(0.05,0,0,0.05,22,0)" xlink:href="#br"/><use transform="matrix(0.05,0,0,0.05,31,0)" xlink:href="#bp"/><use transform="matrix(0.05,0,0,0.05,34.95,0)" xlink:href="#bs"/><use transform="matrix(0.05,0,0,0.05,44.95,0)" xlink:href="#bk"/><use transform="matrix(0.05,0,0,0.05,54.95,0)" xlink:href="#br"/><use transform="matrix(0.05,0,0,0.05,63.95,0)" xlink:href="#br"/><use transform="matrix(0.05,0,0,0.05,72.95,0)" xlink:href="#bw"/><use transform="matrix(0.05,0,0,0.05,82.95,0)" xlink:href="#bt"/><use transform="matrix(0.05,0,0,0.05,97.9,0)" xlink:href="#bi"/><use transform="matrix(0.05,0,0,0.05,107.9,0)" xlink:href="#bs"/></g><path fill="#3a414a" d="M205 0l-28-72H64L36 0H1l101-248h38L239 0h-34zm-38-99l-47-123c-12 45-31 82-46 123h93" id="bL"/><g id="ar"><use transform="matrix(0.05,0,0,0.05,0,0)" xlink:href="#bL"/><use transform="matrix(0.05,0,0,0.05,12,0)" xlink:href="#bq"/><use transform="matrix(0.05,0,0,0.05,22,0)" xlink:href="#bt"/><use transform="matrix(0.05,0,0,0.05,36.95,0)" xlink:href="#bp"/><use transform="matrix(0.05,0,0,0.05,40.900000000000006,0)" xlink:href="#bs"/></g><path fill="#3a414a" d="M190 0L58-211 59 0H30v-248h39L202-35l-2-213h31V0h-41" id="bM"/><g id="as"><use transform="matrix(0.05,0,0,0.05,0,0)" xlink:href="#bM"/><use transform="matrix(0.05,0,0,0.05,12.950000000000001,0)" xlink:href="#bi"/><use transform="matrix(0.05,0,0,0.05,22.950000000000003,0)" xlink:href="#bj"/><use transform="matrix(0.05,0,0,0.05,27.950000000000003,0)" xlink:href="#bp"/><use transform="matrix(0.05,0,0,0.05,31.900000000000002,0)" xlink:href="#bm"/><use transform="matrix(0.05,0,0,0.05,41.900000000000006,0)" xlink:href="#bs"/><use transform="matrix(0.05,0,0,0.05,51.900000000000006,0)" xlink:href="#bi"/><use transform="matrix(0.05,0,0,0.05,61.900000000000006,0)" xlink:href="#bA"/><use transform="matrix(0.05,0,0,0.05,65.85000000000001,0)" xlink:href="#bp"/><use transform="matrix(0.05,0,0,0.05,69.80000000000001,0)" xlink:href="#bj"/><use transform="matrix(0.05,0,0,0.05,74.80000000000001,0)" xlink:href="#bo"/></g><g id="at"><use transform="matrix(0.05,0,0,0.05,0,0)" xlink:href="#bu"/><use transform="matrix(0.05,0,0,0.05,9,0)" xlink:href="#bi"/><use transform="matrix(0.05,0,0,0.05,19,0)" xlink:href="#bs"/></g><g id="au"><use transform="matrix(0.05,0,0,0.05,0,0)" xlink:href="#bH"/><use transform="matrix(0.05,0,0,0.05,10,0)" xlink:href="#bi"/><use transform="matrix(0.05,0,0,0.05,20,0)" xlink:href="#bI"/><use transform="matrix(0.05,0,0,0.05,29,0)" xlink:href="#bk"/></g><g id="aw"><use transform="matrix(0.05,0,0,0.05,0,0)" xlink:href="#bj"/><use transform="matrix(0.05,0,0,0.05,5,0)" xlink:href="#bm"/></g><g id="ax"><use transform="matrix(0.05,0,0,0.05,0,0)" xlink:href="#bB"/><use transform="matrix(0.05,0,0,0.05,12.950000000000001,0)" xlink:href="#bm"/><use transform="matrix(0.05,0,0,0.05,22.950000000000003,0)" xlink:href="#bn"/><use transform="matrix(0.05,0,0,0.05,28.900000000000002,0)" xlink:href="#bC"/></g><path fill="#3a414a" d="M0 4l72-265h28L28 4H0" id="bN"/><use transform="matrix(0.05,0,0,0.05,0,0)" xlink:href="#bN" id="ay"/><g id="az"><use transform="matrix(0.05,0,0,0.05,0,0)" xlink:href="#bF"/><use transform="matrix(0.05,0,0,0.05,10,0)" xlink:href="#bk"/></g><g id="aA"><use transform="matrix(0.05,0,0,0.05,0,0)" xlink:href="#bj"/><use transform="matrix(0.05,0,0,0.05,5,0)" xlink:href="#bm"/></g><g id="aB"><use transform="matrix(0.05,0,0,0.05,0,0)" xlink:href="#bF"/><use transform="matrix(0.05,0,0,0.05,10,0)" xlink:href="#bk"/></g><g id="aC"><use transform="matrix(0.05,0,0,0.05,0,0)" xlink:href="#bN"/><use transform="matrix(0.05,0,0,0.05,5,0)" xlink:href="#bj"/><use transform="matrix(0.05,0,0,0.05,10,0)" xlink:href="#bm"/></g><g id="aD"><use transform="matrix(0.05,0,0,0.05,0,0)" xlink:href="#bu"/><use transform="matrix(0.05,0,0,0.05,9,0)" xlink:href="#bA"/><use transform="matrix(0.05,0,0,0.05,12.949999999999998,0)" xlink:href="#bp"/><use transform="matrix(0.05,0,0,0.05,16.9,0)" xlink:href="#bk"/><use transform="matrix(0.05,0,0,0.05,26.899999999999995,0)" xlink:href="#bs"/><use transform="matrix(0.05,0,0,0.05,36.9,0)" xlink:href="#bj"/></g><g id="aE"><use transform="matrix(0.05,0,0,0.05,0,0)" xlink:href="#bi"/><use transform="matrix(0.05,0,0,0.05,10,0)" xlink:href="#br"/><use transform="matrix(0.05,0,0,0.05,19,0)" xlink:href="#br"/><use transform="matrix(0.05,0,0,0.05,28,0)" xlink:href="#bm"/><use transform="matrix(0.05,0,0,0.05,38,0)" xlink:href="#bu"/><use transform="matrix(0.05,0,0,0.05,47,0)" xlink:href="#bp"/><use transform="matrix(0.05,0,0,0.05,50.95,0)" xlink:href="#bi"/><use transform="matrix(0.05,0,0,0.05,60.95,0)" xlink:href="#bj"/><use transform="matrix(0.05,0,0,0.05,65.95,0)" xlink:href="#bk"/><use transform="matrix(0.05,0,0,0.05,75.95,0)" xlink:href="#bq"/></g><g id="aF"><use transform="matrix(0.05,0,0,0.05,0,0)" xlink:href="#by"/><use transform="matrix(0.05,0,0,0.05,10,0)" xlink:href="#br"/><use transform="matrix(0.05,0,0,0.05,19,0)" xlink:href="#bk"/><use transform="matrix(0.05,0,0,0.05,29,0)" xlink:href="#bq"/></g><g id="aG"><use transform="matrix(0.05,0,0,0.05,0,0)" xlink:href="#bH"/><use transform="matrix(0.05,0,0,0.05,10,0)" xlink:href="#bi"/><use transform="matrix(0.05,0,0,0.05,20,0)" xlink:href="#bI"/><use transform="matrix(0.05,0,0,0.05,29,0)" xlink:href="#bk"/></g><g id="aH"><use transform="matrix(0.05,0,0,0.05,0,0)" xlink:href="#bH"/><use transform="matrix(0.05,0,0,0.05,10,0)" xlink:href="#bi"/><use transform="matrix(0.05,0,0,0.05,20,0)" xlink:href="#bI"/><use transform="matrix(0.05,0,0,0.05,29,0)" xlink:href="#bk"/></g><g id="aI"><use transform="matrix(0.05,0,0,0.05,0,0)" xlink:href="#by"/><use transform="matrix(0.05,0,0,0.05,10,0)" xlink:href="#br"/><use transform="matrix(0.05,0,0,0.05,19,0)" xlink:href="#bk"/><use transform="matrix(0.05,0,0,0.05,29,0)" xlink:href="#bq"/></g><g id="aJ"><use transform="matrix(0.05,0,0,0.05,0,0)" xlink:href="#bH"/><use transform="matrix(0.05,0,0,0.05,10,0)" xlink:href="#bi"/><use transform="matrix(0.05,0,0,0.05,20,0)" xlink:href="#bI"/><use transform="matrix(0.05,0,0,0.05,29,0)" xlink:href="#bk"/><use transform="matrix(0.05,0,0,0.05,39,0)" xlink:href="#bN"/><use transform="matrix(0.05,0,0,0.05,44,0)" xlink:href="#bj"/><use transform="matrix(0.05,0,0,0.05,49,0)" xlink:href="#bm"/><use transform="matrix(0.05,0,0,0.05,59,0)" xlink:href="#bF"/><use transform="matrix(0.05,0,0,0.05,69,0)" xlink:href="#bk"/></g></defs></g></svg>